<svg xmlns="http://www.w3.org/2000/svg" viewBox="0 0 480 100" preserveAspectRatio="none">
<line x1="240" y1="0" x2="240" y2="100" stroke="#3a3730" vector-effect="non-scaling-stroke"/>
<path d="M0 47.3L1 47.5 2 47.9 3 48.1 4 48.2 5 48.0 6 47.6 7 47.3 8 47.3 9 47.6 10 48.2 11 49.1 12 49.9 13 50.7 14 51.3 15 51.8 16 52.4 17 53.1 18 53.9 19 54.4 20 54.6 21 54.1 22 52.9 23 51.5 24 50.0 25 49.1 26 48.9 27 49.5 28 50.5 29 51.4 30 51.9 31 51.5 32 50.4 33 48.8 34 47.1 35 46.0 36 45.7 37 46.3 38 47.4 39 48.9 40 50.2 41 51.3 42 51.9 43 52.1 44 52.1 45 51.9 46 51.5 47 51.1 48 50.6 49 49.9 50 49.1 51 48.3 52 47.7 53 47.2 54 47.0 55 47.0 56 47.2 57 47.5 58 47.8 59 48.2 60 48.6 61 49.0 62 49.5 63 50.2 64 51.1 65 52.3 66 53.5 67 54.7 68 55.6 69 56.0 70 55.5 71 54.4 72 52.7 73 50.8 74 49.2 75 48.0 76 47.5 77 47.4 78 47.5 79 47.7 80 48.0 81 48.4 82 49.0 83 50.1 84 51.3 85 52.4 86 52.7 87 51.9 88 49.8 89 46.9 90 43.9 91 41.9 92 41.9 93 44.0 94 47.9 95 52.4 96 56.5 97 58.9 98 59.1 99 57.5 100 54.9 101 52.1 102 50.1 103 49.1 104 48.6 105 48.3 106 47.5 107 46.2 108 44.6 109 43.5 110 43.5 111 44.7 112 46.9 113 49.1 114 50.6 115 50.9 116 49.9 117 48.5 118 47.9 119 48.9 120 51.9 121 56.4 122 61.2 123 64.7 124 65.5 125 63.2 126 58.1 127 51.2 128 44.2 129 38.3 130 34.4 131 32.7 132 32.9 133 34.8 134 37.8 135 42.0 136 47.4 137 54.0 138 61.5 139 69.1 140 75.7 141 80.1 142 81.0 143 78.1 144 71.4 145 61.9 146 51.0 147 40.2 148 30.8 149 23.5 150 18.8 151 16.3 152 15.9 153 17.8 154 21.8 155 27.3 156 34.0 157 41.4 158 49.1 159 56.5 160 63.2 161 68.8 162 72.7 163 74.7 164 74.8 165 73.2 166 70.2 167 66.4 168 62.5 169 58.8 170 55.8 171 53.3 172 51.2 173 49.2 174 47.2 175 45.1 176 42.9 177 41.0 178 39.7 179 39.3 180 39.9 181 41.4 182 43.6 183 46.1 184 48.4 185 50.2 186 51.4 187 51.9 188 51.8 189 51.3 190 50.5 191 49.6 192 48.8 193 48.1 194 47.8 195 47.9 196 48.5 197 49.4 198 50.4 199 51.4 200 52.0 201 52.1 202 51.7 203 51.0 204 50.3 205 49.8 206 49.7 207 50.2 208 50.9 209 51.7 210 52.3 211 52.4 212 52.1 213 51.3 214 50.4 215 49.7 216 49.2 217 49.3 218 49.6 219 50.1 220 50.5 221 50.6 222 50.4 223 49.9 224 49.4 225 49.0 226 48.9 227 49.1 228 49.5 229 50.0 230 50.2 231 50.3 232 50.0 233 49.6 234 49.1 235 48.8 236 48.7 237 48.8 238 49.0 239 49.2 240 49.2 241 49.1 242 48.9 243 48.7 244 48.7 245 49.0 246 49.6 247 50.4 248 51.1 249 51.5 250 51.5 251 51.2 252 50.7 253 50.4 254 50.4 255 50.9 256 51.8 257 52.6 258 53.1 259 52.9 260 52.0 261 50.6 262 49.1 263 48.1 264 48.0 265 48.7 266 50.2 267 51.9 268 53.1 269 53.4 270 52.6 271 50.7 272 48.3 273 46.0 274 44.3 275 43.7 276 44.2 277 45.7 278 47.7 279 49.8 280 51.6 281 53.0 282 53.7 283 54.0 284 53.8 285 53.3 286 52.5 287 51.6 288 50.7 289 50.0 290 49.5 291 49.3 292 49.3 293 49.4 294 49.4 295 49.1 296 48.5 297 47.5 298 46.2 299 44.6 300 42.9 301 41.1 302 39.4 303 37.9 304 37.0 305 37.0 306 38.2 307 40.8 308 44.9 309 50.3 310 56.7 311 63.4 312 69.9 313 75.8 314 80.5 315 83.8 316 85.3 317 84.8 318 82.1 319 77.0 320 69.5 321 60.0 322 49.0 323 37.5 324 26.3 325 16.5 326 9.0 327 4.4 328 3.0 329 4.4 330 9.5 331 18.7 332 31.4 333 46.0 334 60.2 335 71.6 336 78.7 337 81.0 338 79.5 339 75.8 340 71.5 341 67.6 342 64.2 343 60.7 344 56.1 345 50.1 346 43.0 347 36.0 348 30.9 349 29.2 350 31.4 351 37.1 352 44.6 353 51.8 354 56.9 355 58.6 356 57.2 357 53.7 358 49.8 359 46.9 360 45.9 361 46.8 362 49.0 363 51.7 364 54.0 365 55.7 366 56.7 367 57.2 368 57.4 369 57.2 370 56.2 371 54.2 372 51.0 373 47.2 374 43.7 375 41.5 376 41.4 377 43.4 378 46.9 379 50.5 380 52.8 381 52.9 382 50.5 383 46.4 384 42.1 385 39.1 386 38.7 387 41.2 388 45.9 389 51.6 390 56.7 391 60.1 392 61.1 393 60.1 394 57.7 395 54.9 396 52.5 397 50.9 398 50.1 399 49.9 400 49.7 401 49.4 402 49.0 403 48.5 404 48.3 405 48.6 406 49.3 407 50.2 408 51.0 409 51.2 410 50.8 411 49.6 412 48.1 413 46.6 414 45.7 415 45.6 416 46.4 417 47.9 418 49.7 419 51.3 420 52.2 421 52.2 422 51.5 423 50.3 424 49.0 425 48.2 426 48.1 427 48.7 428 49.9 429 51.2 430 52.3 431 52.9 432 53.0 433 52.7 434 52.0 435 51.3 436 50.7 437 50.3 438 50.1 439 50.0 440 50.1 441 50.2 442 50.2 443 50.1 444 49.9 445 49.4 446 48.8 447 48.0 448 47.3 449 46.9 450 46.8 451 47.1 452 47.7 453 48.5 454 49.2 455 49.7 456 49.9 457 49.9 458 49.8 459 50.1 460 50.7 461 51.6 462 52.8 463 53.8 464 54.4 465 54.4 466 53.7 467 52.5 468 51.2 469 50.1 470 49.6 471 49.7 472 50.2 473 50.9 474 51.4 475 51.4 476 50.8 477 49.8 478 48.6 479 47.5 480 46.9" fill="none" stroke="#d6cfbf" stroke-width="1.3" stroke-linejoin="round" vector-effect="non-scaling-stroke"></path>
</svg>
