<svg xmlns="http://www.w3.org/2000/svg" viewBox="0 0 1200 600" preserveAspectRatio="none">
<polyline points="0.0,24.7 3.0,29.3 6.0,34.1 9.0,38.0 12.0,40.2 15.0,40.5 18.0,39.0 21.1,36.2 24.1,32.7 27.1,29.1 30.1,25.8 33.1,23.3 36.1,22.1 39.1,22.3 42.1,23.9 45.1,26.6 48.1,29.7 51.1,32.4 54.1,34.0 57.1,34.0 60.2,32.5 63.2,30.2 66.2,27.8 69.2,26.5 72.2,26.8 75.2,28.9 78.2,32.3 81.2,36.0 84.2,38.9 87.2,40.1 90.2,39.0 93.2,35.8 96.2,31.4 99.2,26.9 102.3,23.2 105.3,21.2 108.3,21.1 111.3,22.5 114.3,24.6 117.3,26.8 120.3,28.3 123.3,28.9 126.3,28.7 129.3,28.3 132.3,28.2 135.3,28.8 138.3,30.2 141.4,32.1 144.4,34.1 147.4,35.6 150.4,36.0 153.4,35.2 156.4,33.3 159.4,30.8 162.4,28.2 165.4,26.3 168.4,25.5 171.4,25.9 174.4,27.3 177.4,29.3 180.5,31.4 183.5,33.1 186.5,34.0 189.5,34.1 192.5,33.7 195.5,33.0 198.5,32.4 201.5,32.2 204.5,32.2 207.5,32.2 210.5,31.9 213.5,30.9 216.5,29.3 219.5,27.1 222.6,24.9 225.6,23.2 228.6,22.5 231.6,23.0 234.6,24.6 237.6,26.8 240.6,29.0 243.6,30.7 246.6,31.6 249.6,31.7 252.6,31.4 255.6,31.2 258.6,31.4 261.7,32.2 264.7,33.5 267.7,34.7 270.7,35.2 273.7,34.6 276.7,32.8 279.7,29.9 282.7,26.9 285.7,24.4 288.7,23.4 291.7,24.4 294.7,27.2 297.7,31.1 300.8,35.2 303.8,38.2 306.8,39.1 309.8,37.5 312.8,33.7 315.8,28.7 318.8,23.6 321.8,20.0 324.8,18.7 327.8,20.2 330.8,24.0 333.8,29.0 336.8,34.1 339.8,37.8 342.9,39.4 345.9,38.6 348.9,35.9 351.9,32.2 354.9,28.7 357.9,26.1 360.9,25.0 363.9,25.4 366.9,26.9 369.9,28.7 372.9,30.2 375.9,30.9 378.9,30.5 382.0,29.4 385.0,27.8 388.0,26.4 391.0,25.6 394.0,25.7 397.0,26.7 400.0,28.4 403.0,30.5 406.0,32.5 409.0,34.2 412.0,35.3 415.0,35.9 418.0,36.1 421.1,36.1 424.1,36.1 427.1,36.0 430.1,35.5 433.1,34.5 436.1,32.8 439.1,30.4 442.1,27.7 445.1,25.0 448.1,23.0 451.1,22.1 454.1,22.4 457.1,23.7 460.2,25.4 463.2,27.1 466.2,28.3 469.2,28.9 472.2,29.0 475.2,29.1 478.2,29.3 481.2,29.7 484.2,30.2 487.2,30.4 490.2,30.1 493.2,29.1 496.2,28.0 499.2,27.3 502.3,27.9 505.3,30.0 508.3,33.4 511.3,37.4 514.3,40.5 517.3,41.6 520.3,40.0 523.3,35.9 526.3,30.3 529.3,24.9 532.3,21.4 535.3,20.6 538.3,22.8 541.4,26.8 544.4,31.2 547.4,34.4 550.4,35.3 553.4,33.7 556.4,30.4 559.4,26.8 562.4,24.1 565.4,23.3 568.4,24.6 571.4,27.6 574.4,31.4 577.4,34.9 580.5,37.4 583.5,38.5 586.5,38.2 589.5,36.6 592.5,34.1 595.5,31.2 598.5,28.3 601.5,25.9 604.5,24.4 607.5,24.2 610.5,25.0 613.5,26.6 616.5,28.1 619.5,28.8 622.6,28.1 625.6,26.1 628.6,23.5 631.6,21.4 634.6,21.0 637.6,23.1 640.6,27.6 643.6,33.3 646.6,38.8 649.6,42.2 652.6,42.7 655.6,40.0 658.6,35.2 661.7,30.0 664.7,26.1 667.7,24.8 670.7,26.2 673.7,29.5 676.7,33.3 679.7,36.1 682.7,36.8 685.7,35.3 688.7,32.2 691.7,28.6 694.7,25.5 697.7,23.7 700.8,23.5 703.8,24.6 706.8,26.6 709.8,28.9 712.8,31.0 715.8,32.6 718.8,33.6 721.8,33.8 724.8,33.2 727.8,31.8 730.8,29.9 733.8,27.9 736.8,26.4 739.8,25.7 742.9,26.1 745.9,27.7 748.9,30.0 751.9,32.4 754.9,34.2 757.9,35.0 760.9,34.6 763.9,33.0 766.9,30.6 769.9,27.9 772.9,25.3 775.9,23.4 778.9,22.4 782.0,22.7 785.0,24.1 788.0,26.5 791.0,29.4 794.0,32.2 797.0,34.4 800.0,35.5 803.0,35.4 806.0,34.5 809.0,33.1 812.0,31.9 815.0,31.0 818.0,30.7 821.1,30.5 824.1,30.1 827.1,29.4 830.1,28.6 833.1,28.0 836.1,28.3 839.1,30.0 842.1,32.7 845.1,35.9 848.1,38.4 851.1,39.1 854.1,37.5 857.1,33.6 860.2,28.5 863.2,23.6 866.2,20.3 869.2,19.4 872.2,20.9 875.2,24.0 878.2,27.4 881.2,29.8 884.2,30.5 887.2,29.8 890.2,28.3 893.2,27.2 896.2,27.0 899.2,28.2 902.3,30.3 905.3,32.6 908.3,34.1 911.3,34.4 914.3,33.5 917.3,31.9 920.3,30.4 923.3,29.6 926.3,29.7 929.3,30.7 932.3,31.9 935.3,32.6 938.3,32.4 941.4,31.2 944.4,29.3 947.4,27.4 950.4,26.1 953.4,25.9 956.4,27.1 959.4,29.5 962.4,32.5 965.4,35.5 968.4,38.0 971.4,39.4 974.4,39.4 977.4,37.9 980.5,35.1 983.5,31.3 986.5,26.9 989.5,22.8 992.5,19.4 995.5,17.6 998.5,17.7 1001.5,19.6 1004.5,23.2 1007.5,27.4 1010.5,31.3 1013.5,33.9 1016.5,34.7 1019.5,33.6 1022.6,31.1 1025.6,28.4 1028.6,26.4 1031.6,26.1 1034.6,27.4 1037.6,30.0 1040.6,32.9 1043.6,35.1 1046.6,35.9 1049.6,35.4 1052.6,34.1 1055.6,33.0 1058.6,32.7 1061.7,33.6 1064.7,35.2 1067.7,36.4 1070.7,36.4 1073.7,34.6 1076.7,31.1 1079.7,26.9 1082.7,23.2 1085.7,21.2 1088.7,21.4 1091.7,23.2 1094.7,25.8 1097.7,27.8 1100.8,28.4 1103.8,27.5 1106.8,25.9 1109.8,24.9 1112.8,25.7 1115.8,28.4 1118.8,32.6 1121.8,36.8 1124.8,39.6 1127.8,39.8 1130.8,37.4 1133.8,33.2 1136.8,29.0 1139.8,26.2 1142.9,25.8 1145.9,27.5 1148.9,30.2 1151.9,32.6 1154.9,33.4 1157.9,32.2 1160.9,29.6 1163.9,26.8 1166.9,25.2 1169.9,25.6 1172.9,27.9 1175.9,31.1 1178.9,33.8 1182.0,34.8 1185.0,33.4 1188.0,30.1 1191.0,25.8 1194.0,22.3 1197.0,20.6 1200.0,21.5" fill="none" stroke="#8d877a" stroke-width="1" stroke-opacity="0.16" stroke-linejoin="round"/>
<polyline points="0.0,74.5 3.0,77.0 6.0,79.8 9.0,82.0 12.0,82.8 15.0,81.9 18.0,79.7 21.1,77.0 24.1,74.4 27.1,72.9 30.1,72.8 33.1,74.0 36.1,76.3 39.1,79.3 42.1,82.5 45.1,85.4 48.1,87.8 51.1,89.2 54.1,89.6 57.1,88.8 60.2,87.0 63.2,84.7 66.2,82.4 69.2,80.9 72.2,80.6 75.2,81.3 78.2,82.6 81.2,83.7 84.2,83.9 87.2,82.7 90.2,80.3 93.2,77.3 96.2,74.5 99.2,72.8 102.3,72.5 105.3,73.4 108.3,74.9 111.3,76.2 114.3,76.7 117.3,76.2 120.3,75.1 123.3,73.9 126.3,73.5 129.3,74.3 132.3,76.3 135.3,79.1 138.3,82.0 141.4,84.6 144.4,86.4 147.4,87.3 150.4,87.5 153.4,87.2 156.4,86.6 159.4,85.8 162.4,84.9 165.4,83.8 168.4,82.6 171.4,81.2 174.4,79.8 177.4,78.4 180.5,77.0 183.5,75.6 186.5,74.3 189.5,73.4 192.5,73.2 195.5,74.0 198.5,75.9 201.5,78.7 204.5,81.7 207.5,84.1 210.5,85.1 213.5,84.5 216.5,82.4 219.5,79.7 222.6,77.5 225.6,76.7 228.6,77.7 231.6,80.3 234.6,83.6 237.6,86.3 240.6,87.5 243.6,86.5 246.6,83.7 249.6,79.9 252.6,76.4 255.6,74.1 258.6,73.7 261.7,74.8 264.7,77.0 267.7,79.2 270.7,80.7 273.7,81.1 276.7,80.4 279.7,79.1 282.7,77.8 285.7,77.1 288.7,77.3 291.7,78.4 294.7,80.3 297.7,82.7 300.8,85.0 303.8,86.7 306.8,87.4 309.8,86.7 312.8,84.6 315.8,81.4 318.8,77.5 321.8,73.9 324.8,71.5 327.8,71.0 330.8,72.5 333.8,75.8 336.8,80.1 339.8,84.1 342.9,86.8 345.9,87.3 348.9,85.7 351.9,82.3 354.9,78.1 357.9,74.3 360.9,71.7 363.9,70.9 366.9,72.0 369.9,74.4 372.9,77.7 375.9,81.0 378.9,84.0 382.0,86.4 385.0,87.9 388.0,88.5 391.0,88.2 394.0,87.1 397.0,85.4 400.0,83.1 403.0,80.7 406.0,78.4 409.0,76.8 412.0,76.0 415.0,76.2 418.0,77.2 421.1,78.6 424.1,80.1 427.1,81.2 430.1,81.7 433.1,81.7 436.1,81.3 439.1,80.8 442.1,80.1 445.1,79.5 448.1,78.8 451.1,77.9 454.1,76.8 457.1,75.5 460.2,74.4 463.2,73.9 466.2,74.2 469.2,75.6 472.2,77.9 475.2,80.8 478.2,83.6 481.2,85.5 484.2,86.2 487.2,85.3 490.2,83.1 493.2,80.3 496.2,77.7 499.2,76.0 502.3,75.9 505.3,77.3 508.3,80.0 511.3,83.1 514.3,85.8 517.3,87.2 520.3,86.8 523.3,84.7 526.3,81.4 529.3,77.9 532.3,75.1 535.3,73.8 538.3,74.4 541.4,76.6 544.4,79.7 547.4,82.6 550.4,84.2 553.4,84.0 556.4,82.1 559.4,79.1 562.4,76.1 565.4,74.4 568.4,74.5 571.4,76.6 574.4,79.9 577.4,83.2 580.5,85.3 583.5,85.4 586.5,83.2 589.5,79.6 592.5,76.0 595.5,73.7 598.5,73.8 601.5,76.7 604.5,81.6 607.5,87.1 610.5,91.4 613.5,93.2 616.5,91.7 619.5,87.2 622.6,80.9 625.6,74.4 628.6,69.3 631.6,66.6 634.6,66.6 637.6,68.8 640.6,72.3 643.6,76.0 646.6,79.3 649.6,81.8 652.6,83.7 655.6,85.2 658.6,86.6 661.7,87.9 664.7,88.7 667.7,88.4 670.7,86.6 673.7,83.4 676.7,79.3 679.7,75.3 682.7,72.5 685.7,71.5 688.7,72.7 691.7,75.3 694.7,78.2 697.7,80.4 700.8,80.8 703.8,79.6 706.8,77.3 709.8,75.1 712.8,74.4 715.8,75.8 718.8,79.3 721.8,84.1 724.8,88.6 727.8,91.4 730.8,91.8 733.8,89.6 736.8,85.6 739.8,81.2 742.9,77.5 745.9,75.5 748.9,75.4 751.9,76.6 754.9,78.4 757.9,79.8 760.9,80.4 763.9,80.2 766.9,79.7 769.9,79.4 772.9,79.7 775.9,80.8 778.9,82.1 782.0,83.2 785.0,83.4 788.0,82.3 791.0,79.9 794.0,76.7 797.0,73.5 800.0,71.0 803.0,69.9 806.0,70.6 809.0,73.1 812.0,76.7 815.0,80.9 818.0,84.8 821.1,87.4 824.1,88.5 827.1,87.7 830.1,85.5 833.1,82.5 836.1,79.5 839.1,77.3 842.1,76.4 845.1,76.8 848.1,78.2 851.1,80.0 854.1,81.5 857.1,82.4 860.2,82.3 863.2,81.5 866.2,80.2 869.2,78.8 872.2,77.7 875.2,76.9 878.2,76.4 881.2,76.3 884.2,76.8 887.2,77.8 890.2,79.7 893.2,82.3 896.2,85.3 899.2,88.2 902.3,90.1 905.3,90.3 908.3,88.4 911.3,84.7 914.3,79.8 917.3,75.1 920.3,71.5 923.3,70.1 926.3,70.9 929.3,73.6 932.3,77.2 935.3,80.7 938.3,83.1 941.4,84.1 944.4,83.7 947.4,82.4 950.4,80.9 953.4,79.8 956.4,79.2 959.4,79.2 962.4,79.3 965.4,79.3 968.4,78.7 971.4,77.8 974.4,76.8 977.4,76.1 980.5,76.0 983.5,76.9 986.5,78.5 989.5,80.5 992.5,79.8 995.5,89.9 998.5,95.0 1001.5,89.5 1004.5,76.5 1007.5,66.7 1010.5,69.3 1013.5,82.8 1016.5,95.5 1019.5,94.8 1022.6,79.8 1025.6,63.2 1028.6,60.2 1031.6,74.4 1034.6,93.8 1037.6,101.3 1040.6,90.3 1043.6,71.2 1046.6,61.9 1049.6,71.4 1052.6,91.6 1055.6,105.1 1058.6,100.6 1061.7,82.3 1064.7,65.5 1067.7,62.0 1070.7,71.2 1073.7,81.9 1076.7,84.0 1079.7,76.7 1082.7,68.2 1085.7,66.9 1088.7,74.5 1091.7,85.1 1094.7,91.5 1097.7,90.6 1100.8,85.2 1103.8,79.9 1106.8,77.5 1109.8,77.6 1112.8,78.2 1115.8,78.1 1118.8,77.9 1121.8,78.7 1124.8,80.7 1127.8,82.6 1130.8,83.0 1133.8,81.0 1136.8,77.3 1139.8,73.6 1142.9,71.6 1145.9,72.3 1148.9,75.6 1151.9,80.6 1154.9,85.9 1157.9,90.1 1160.9,92.0 1163.9,91.6 1166.9,89.1 1169.9,85.8 1172.9,82.5 1175.9,80.2 1178.9,79.0 1182.0,78.5 1185.0,78.0 1188.0,77.0 1191.0,75.6 1194.0,74.0 1197.0,72.9 1200.0,73.0" fill="none" stroke="#8d877a" stroke-width="1" stroke-opacity="0.16" stroke-linejoin="round"/>
<polyline points="0.0,134.9 3.0,134.4 6.0,132.1 9.0,129.0 12.0,126.3 15.0,125.0 18.0,125.6 21.1,127.7 24.1,130.7 27.1,133.5 30.1,135.1 33.1,135.0 36.1,133.3 39.1,130.3 42.1,127.0 45.1,124.2 48.1,122.6 51.1,122.5 54.1,123.9 57.1,126.3 60.2,129.0 63.2,131.3 66.2,132.5 69.2,132.5 72.2,131.5 75.2,130.1 78.2,129.0 81.2,128.9 84.2,129.9 87.2,132.0 90.2,134.3 93.2,136.2 96.2,137.0 99.2,136.3 102.3,134.4 105.3,132.1 108.3,130.2 111.3,129.2 114.3,129.3 117.3,130.1 120.3,130.7 123.3,130.5 126.3,129.1 129.3,126.7 132.3,124.3 135.3,122.8 138.3,122.8 141.4,124.6 144.4,127.6 147.4,130.6 150.4,132.6 153.4,132.7 156.4,131.3 159.4,129.0 162.4,127.2 165.4,126.9 168.4,128.7 171.4,132.2 174.4,136.1 177.4,139.0 180.5,139.8 183.5,138.1 186.5,134.4 189.5,129.9 192.5,126.0 195.5,123.7 198.5,123.4 201.5,124.7 204.5,126.6 207.5,128.3 210.5,129.1 213.5,129.0 216.5,128.3 219.5,127.7 222.6,127.7 225.6,128.4 228.6,129.5 231.6,130.6 234.6,131.1 237.6,131.0 240.6,130.5 243.6,130.1 246.6,130.3 249.6,131.4 252.6,133.2 255.6,135.2 258.6,136.5 261.7,136.5 264.7,135.0 267.7,132.2 270.7,128.8 273.7,125.8 276.7,124.1 279.7,124.0 282.7,125.5 285.7,127.9 288.7,130.4 291.7,132.1 294.7,132.5 297.7,131.4 300.8,129.4 303.8,127.2 306.8,125.6 309.8,125.2 312.8,126.1 315.8,128.0 318.8,130.5 321.8,132.7 324.8,134.2 327.8,134.7 330.8,134.2 333.8,133.1 336.8,131.9 339.8,130.7 342.9,129.8 345.9,129.0 348.9,128.5 351.9,128.0 354.9,127.6 357.9,127.7 360.9,128.3 363.9,129.7 366.9,131.8 369.9,134.1 372.9,136.0 375.9,136.9 378.9,136.4 382.0,134.3 385.0,131.1 388.0,127.5 391.0,124.1 394.0,121.8 397.0,120.9 400.0,121.2 403.0,122.6 406.0,124.4 409.0,126.2 412.0,127.9 415.0,129.5 418.0,131.1 421.1,132.9 424.1,135.0 427.1,137.1 430.1,138.6 433.1,139.0 436.1,138.0 439.1,135.4 442.1,131.7 445.1,127.4 448.1,123.7 451.1,121.3 454.1,120.8 457.1,122.4 460.2,125.6 463.2,129.7 466.2,133.8 469.2,137.0 472.2,138.7 475.2,138.8 478.2,137.5 481.2,135.1 484.2,132.3 487.2,129.6 490.2,127.5 493.2,126.0 496.2,125.2 499.2,124.8 502.3,124.6 505.3,124.5 508.3,124.5 511.3,124.8 514.3,125.5 517.3,126.7 520.3,128.6 523.3,130.9 526.3,133.4 529.3,135.4 532.3,136.6 535.3,136.8 538.3,136.0 541.4,134.5 544.4,132.8 547.4,131.1 550.4,129.8 553.4,128.9 556.4,128.1 559.4,127.4 562.4,126.7 565.4,126.1 568.4,125.8 571.4,126.1 574.4,127.2 577.4,128.9 580.5,130.7 583.5,131.9 586.5,132.2 589.5,131.2 592.5,129.3 595.5,127.3 598.5,126.1 601.5,126.4 604.5,128.3 607.5,131.6 610.5,135.2 613.5,138.1 616.5,139.3 619.5,138.6 622.6,136.1 625.6,132.7 628.6,129.3 631.6,126.8 634.6,125.4 637.6,125.0 640.6,125.0 643.6,125.0 646.6,124.7 649.6,124.3 652.6,124.2 655.6,124.9 658.6,126.8 661.7,129.8 664.7,133.3 667.7,136.6 670.7,138.8 673.7,139.5 676.7,138.5 679.7,135.9 682.7,132.5 685.7,128.9 688.7,125.8 691.7,123.5 694.7,122.5 697.7,122.6 700.8,123.9 703.8,126.1 706.8,128.9 709.8,132.0 712.8,134.9 715.8,137.1 718.8,138.0 721.8,137.6 724.8,135.6 727.8,132.5 730.8,128.8 733.8,125.1 736.8,122.2 739.8,120.6 742.9,120.6 745.9,122.3 748.9,125.3 751.9,129.0 754.9,132.6 757.9,135.6 760.9,137.4 763.9,138.0 766.9,137.3 769.9,135.9 772.9,134.0 775.9,132.1 778.9,130.2 782.0,128.4 785.0,126.7 788.0,125.1 791.0,124.0 794.0,123.5 797.0,124.2 800.0,126.2 803.0,129.3 806.0,133.0 809.0,136.1 812.0,137.8 815.0,137.3 818.0,134.5 821.1,130.1 824.1,125.3 827.1,121.7 830.1,120.3 833.1,121.7 836.1,125.4 839.1,130.2 842.1,134.6 845.1,137.0 848.1,137.0 851.1,134.6 854.1,131.0 857.1,127.5 860.2,125.6 863.2,125.9 866.2,128.5 869.2,132.3 872.2,136.0 875.2,138.4 878.2,138.5 881.2,136.3 884.2,132.6 887.2,128.5 890.2,125.3 893.2,123.8 896.2,124.3 899.2,126.3 902.3,128.8 905.3,130.8 908.3,131.7 911.3,131.4 914.3,130.1 917.3,128.6 920.3,127.6 923.3,127.6 926.3,128.5 929.3,130.0 932.3,131.3 935.3,131.9 938.3,131.3 941.4,129.6 944.4,127.2 947.4,124.8 950.4,123.1 953.4,122.6 956.4,123.5 959.4,125.8 962.4,128.9 965.4,132.4 968.4,135.6 971.4,137.7 974.4,138.4 977.4,137.6 980.5,135.3 983.5,132.3 986.5,129.3 989.5,127.2 992.5,126.7 995.5,128.0 998.5,130.6 1001.5,133.8 1004.5,136.6 1007.5,138.1 1010.5,137.9 1013.5,136.1 1016.5,133.4 1019.5,130.5 1022.6,128.0 1025.6,126.0 1028.6,124.5 1031.6,123.2 1034.6,121.7 1037.6,120.4 1040.6,119.7 1043.6,120.3 1046.6,122.8 1049.6,126.9 1052.6,131.8 1055.6,136.2 1058.6,138.8 1061.7,138.9 1064.7,136.4 1067.7,132.6 1070.7,128.9 1073.7,126.9 1076.7,127.2 1079.7,129.5 1082.7,132.5 1085.7,134.6 1088.7,134.5 1091.7,132.0 1094.7,127.7 1097.7,123.4 1100.8,120.8 1103.8,121.1 1106.8,124.4 1109.8,129.5 1112.8,134.7 1115.8,138.3 1118.8,139.3 1121.8,137.9 1124.8,135.0 1127.8,132.1 1130.8,130.5 1133.8,130.3 1136.8,131.1 1139.8,131.7 1142.9,130.9 1145.9,128.3 1148.9,124.3 1151.9,120.3 1154.9,117.9 1157.9,118.5 1160.9,122.3 1163.9,128.5 1166.9,135.3 1169.9,140.7 1172.9,142.9 1175.9,141.5 1178.9,137.2 1182.0,131.5 1185.0,126.5 1188.0,123.8 1191.0,123.8 1194.0,126.3 1197.0,130.0 1200.0,133.3" fill="none" stroke="#8d877a" stroke-width="1" stroke-opacity="0.16" stroke-linejoin="round"/>
<polyline points="0.0,182.1 3.0,179.8 6.0,177.5 9.0,175.1 12.0,172.8 15.0,171.0 18.0,169.9 21.1,169.8 24.1,170.6 27.1,172.2 30.1,174.3 33.1,176.4 36.1,178.2 39.1,179.5 42.1,180.4 45.1,181.0 48.1,181.5 51.1,182.0 54.1,182.6 57.1,183.2 60.2,183.7 63.2,184.0 66.2,184.1 69.2,184.1 72.2,183.8 75.2,183.3 78.2,182.4 81.2,181.0 84.2,179.2 87.2,177.0 90.2,175.0 93.2,173.8 96.2,173.9 99.2,175.7 102.3,178.9 105.3,183.1 108.3,187.0 111.3,189.7 114.3,190.5 117.3,188.9 120.3,185.5 123.3,181.2 126.3,176.9 129.3,173.7 132.3,172.2 135.3,172.3 138.3,173.7 141.4,175.7 144.4,177.5 147.4,178.6 150.4,179.0 153.4,178.7 156.4,178.2 159.4,177.9 162.4,178.2 165.4,179.1 168.4,180.6 171.4,182.4 174.4,184.1 177.4,185.2 180.5,185.6 183.5,185.2 186.5,184.0 189.5,182.3 192.5,180.7 195.5,179.5 198.5,179.0 201.5,179.2 204.5,180.0 207.5,180.9 210.5,181.5 213.5,181.6 216.5,181.0 219.5,180.0 222.6,178.8 225.6,177.6 228.6,176.6 231.6,175.9 234.6,175.3 237.6,174.8 240.6,174.4 243.6,174.4 246.6,175.1 249.6,176.5 252.6,178.8 255.6,181.6 258.6,184.3 261.7,186.2 264.7,186.9 267.7,186.2 270.7,184.4 273.7,182.0 276.7,179.9 279.7,178.6 282.7,178.6 285.7,179.5 288.7,180.9 291.7,182.2 294.7,182.9 297.7,182.6 300.8,181.5 303.8,180.0 306.8,178.5 309.8,177.7 312.8,177.6 315.8,178.4 318.8,179.6 321.8,180.7 324.8,181.2 327.8,180.6 330.8,179.2 333.8,177.1 336.8,175.2 339.8,174.2 342.9,174.8 345.9,177.2 348.9,180.8 351.9,184.9 354.9,188.1 357.9,189.5 360.9,188.7 363.9,185.8 366.9,181.8 369.9,177.9 372.9,175.2 375.9,174.3 378.9,174.9 382.0,176.3 385.0,177.6 388.0,178.1 391.0,177.5 394.0,176.5 397.0,175.8 400.0,176.3 403.0,178.2 406.0,181.1 409.0,183.9 412.0,185.6 415.0,185.4 418.0,183.4 421.1,180.4 424.1,177.6 427.1,176.3 430.1,177.0 433.1,179.4 436.1,182.6 439.1,185.2 442.1,186.1 445.1,185.1 448.1,182.4 451.1,179.0 454.1,176.1 457.1,174.5 460.2,174.6 463.2,175.9 466.2,178.0 469.2,180.2 472.2,182.0 475.2,183.2 478.2,183.9 481.2,184.2 484.2,184.0 487.2,183.5 490.2,182.3 493.2,180.8 496.2,179.1 499.2,177.6 502.3,176.8 505.3,176.8 508.3,177.4 511.3,178.2 514.3,178.8 517.3,178.7 520.3,178.0 523.3,177.2 526.3,177.0 529.3,178.0 532.3,180.2 535.3,183.2 538.3,185.9 541.4,187.4 544.4,186.7 547.4,183.8 550.4,179.3 553.4,174.6 556.4,171.1 559.4,169.9 562.4,171.5 565.4,175.4 568.4,180.5 571.4,185.2 574.4,188.2 577.4,188.7 580.5,186.8 583.5,183.1 586.5,179.0 589.5,175.6 592.5,174.0 595.5,174.5 598.5,177.0 601.5,180.7 604.5,184.3 607.5,187.0 610.5,187.9 613.5,186.9 616.5,184.1 619.5,180.4 622.6,176.4 625.6,173.1 628.6,171.0 631.6,170.4 634.6,171.4 637.6,173.7 640.6,176.9 643.6,180.6 646.6,184.2 649.6,187.1 652.6,189.0 655.6,189.3 658.6,188.1 661.7,185.6 664.7,182.3 667.7,179.1 670.7,176.7 673.7,175.6 676.7,176.0 679.7,177.5 682.7,179.6 685.7,181.6 688.7,182.8 691.7,183.1 694.7,182.3 697.7,180.9 700.8,179.0 703.8,176.8 706.8,174.7 709.8,172.6 712.8,170.7 715.8,169.4 718.8,169.2 721.8,170.5 724.8,173.7 727.8,178.4 730.8,184.0 733.8,189.5 736.8,193.7 739.8,195.7 742.9,195.1 745.9,192.3 748.9,188.1 751.9,183.6 754.9,179.8 757.9,177.6 760.9,176.8 763.9,177.3 766.9,178.1 769.9,178.7 772.9,178.6 775.9,177.6 778.9,176.1 782.0,174.6 785.0,173.6 788.0,173.7 791.0,174.9 794.0,176.9 797.0,179.1 800.0,180.8 803.0,181.7 806.0,181.4 809.0,180.3 812.0,178.9 815.0,177.9 818.0,177.8 821.1,178.8 824.1,180.6 827.1,182.5 830.1,184.0 833.1,184.4 836.1,183.6 839.1,182.1 842.1,180.6 845.1,179.8 848.1,180.1 851.1,181.4 854.1,183.1 857.1,184.2 860.2,184.1 863.2,182.3 866.2,179.3 869.2,176.0 872.2,173.6 875.2,173.0 878.2,174.5 881.2,177.9 884.2,182.0 887.2,185.5 890.2,187.3 893.2,186.7 896.2,184.2 899.2,180.5 902.3,176.9 905.3,174.7 908.3,174.4 911.3,176.0 914.3,178.7 917.3,181.5 920.3,183.4 923.3,183.6 926.3,182.1 929.3,179.5 932.3,176.7 935.3,174.6 938.3,173.9 941.4,174.7 944.4,176.5 947.4,178.7 950.4,180.3 953.4,180.9 956.4,180.4 959.4,179.3 962.4,178.3 965.4,178.2 968.4,179.4 971.4,181.7 974.4,184.5 977.4,186.9 980.5,188.0 983.5,187.4 986.5,185.4 989.5,182.5 992.5,179.8 995.5,178.1 998.5,177.6 1001.5,178.3 1004.5,179.6 1007.5,180.9 1010.5,181.6 1013.5,181.5 1016.5,181.0 1019.5,180.4 1022.6,180.1 1025.6,180.3 1028.6,180.5 1031.6,180.6 1034.6,180.0 1037.6,178.6 1040.6,176.6 1043.6,174.5 1046.6,172.7 1049.6,171.6 1052.6,171.5 1055.6,172.2 1058.6,173.3 1061.7,174.7 1064.7,176.5 1067.7,178.7 1070.7,181.6 1073.7,185.2 1076.7,189.2 1079.7,192.8 1082.7,195.0 1085.7,195.1 1088.7,192.7 1091.7,188.1 1094.7,182.3 1097.7,176.7 1100.8,172.6 1103.8,170.7 1106.8,171.3 1109.8,173.9 1112.8,177.3 1115.8,180.6 1118.8,182.7 1121.8,183.4 1124.8,182.7 1127.8,181.1 1130.8,179.2 1133.8,177.4 1136.8,176.0 1139.8,175.1 1142.9,174.6 1145.9,174.3 1148.9,174.2 1151.9,174.2 1154.9,174.5 1157.9,175.2 1160.9,176.4 1163.9,178.1 1166.9,180.2 1169.9,182.6 1172.9,185.1 1175.9,187.3 1178.9,189.1 1182.0,190.2 1185.0,190.6 1188.0,190.2 1191.0,189.2 1194.0,187.8 1197.0,186.1 1200.0,184.1" fill="none" stroke="#8d877a" stroke-width="1" stroke-opacity="0.16" stroke-linejoin="round"/>
<polyline points="0.0,235.4 3.0,233.6 6.0,231.6 9.0,229.8 12.0,228.5 15.0,227.5 18.0,226.7 21.1,225.7 24.1,224.7 27.1,223.7 30.1,223.0 33.1,222.8 36.1,223.2 39.1,224.2 42.1,225.5 45.1,227.0 48.1,228.5 51.1,230.0 54.1,231.5 57.1,232.9 60.2,234.0 63.2,234.7 66.2,235.0 69.2,234.8 72.2,234.6 75.2,234.6 78.2,235.0 81.2,235.8 84.2,236.6 87.2,236.5 90.2,235.0 93.2,231.6 96.2,226.7 99.2,221.5 102.3,217.4 105.3,215.7 108.3,217.2 111.3,221.6 114.3,227.8 117.3,233.9 120.3,238.2 123.3,239.7 126.3,238.3 129.3,235.0 132.3,231.3 135.3,228.8 138.3,228.2 141.4,229.5 144.4,231.9 147.4,233.9 150.4,234.7 153.4,233.7 156.4,231.1 159.4,227.9 162.4,225.2 165.4,223.9 168.4,224.2 171.4,225.9 174.4,228.1 177.4,230.0 180.5,231.1 183.5,231.0 186.5,230.0 189.5,228.6 192.5,227.4 195.5,226.9 198.5,227.4 201.5,228.7 204.5,230.4 207.5,232.1 210.5,233.3 213.5,233.6 216.5,233.0 219.5,231.8 222.6,230.5 225.6,229.5 228.6,229.4 231.6,230.3 234.6,231.9 237.6,233.6 240.6,234.7 243.6,234.5 246.6,233.0 249.6,230.6 252.6,228.1 255.6,226.2 258.6,225.8 261.7,226.8 264.7,228.7 267.7,230.7 270.7,232.0 273.7,232.3 276.7,231.7 279.7,230.8 282.7,230.2 285.7,230.2 288.7,230.6 291.7,230.7 294.7,229.6 297.7,227.0 300.8,223.1 303.8,219.0 306.8,216.2 309.8,216.3 312.8,219.7 315.8,226.1 318.8,233.7 321.8,240.6 324.8,244.7 327.8,245.1 330.8,241.9 333.8,236.5 336.8,230.8 339.8,226.5 342.9,224.7 345.9,225.5 348.9,228.1 351.9,231.3 354.9,234.0 357.9,235.5 360.9,235.7 363.9,234.7 366.9,233.0 369.9,231.1 372.9,229.1 375.9,227.4 378.9,226.2 382.0,225.6 385.0,226.0 388.0,227.4 391.0,229.4 394.0,231.5 397.0,232.8 400.0,232.7 403.0,231.0 406.0,228.1 409.0,224.9 412.0,222.8 415.0,222.6 418.0,224.8 421.1,228.6 424.1,233.0 427.1,236.4 430.1,237.5 433.1,235.9 436.1,232.2 439.1,227.5 442.1,223.4 445.1,221.3 448.1,221.7 451.1,224.3 454.1,228.0 457.1,231.4 460.2,233.3 463.2,233.4 466.2,231.8 469.2,229.7 472.2,228.3 475.2,228.5 478.2,230.6 481.2,234.1 484.2,238.1 487.2,241.2 490.2,242.3 493.2,241.1 496.2,237.8 499.2,233.4 502.3,229.1 505.3,226.0 508.3,224.6 511.3,224.9 514.3,226.1 517.3,227.4 520.3,227.9 523.3,227.2 526.3,225.6 529.3,223.4 532.3,221.6 535.3,220.6 538.3,220.8 541.4,222.2 544.4,224.4 547.4,227.0 550.4,229.9 553.4,232.8 556.4,235.5 559.4,238.1 562.4,240.1 565.4,241.4 568.4,241.6 571.4,240.4 574.4,238.2 577.4,235.1 580.5,231.9 583.5,229.3 586.5,227.6 589.5,227.0 592.5,227.2 595.5,227.6 598.5,227.7 601.5,227.1 604.5,225.8 607.5,224.2 610.5,222.8 613.5,222.2 616.5,222.7 619.5,224.4 622.6,226.9 625.6,229.7 628.6,232.0 631.6,233.4 634.6,233.6 637.6,232.7 640.6,231.2 643.6,229.6 646.6,228.6 649.6,228.5 652.6,229.6 655.6,231.3 658.6,233.2 661.7,234.3 664.7,234.3 667.7,232.9 670.7,230.6 673.7,228.2 676.7,226.6 679.7,226.5 682.7,228.4 685.7,231.7 688.7,235.6 691.7,238.9 694.7,240.7 697.7,240.3 700.8,237.8 703.8,234.0 706.8,229.8 709.8,226.2 712.8,223.9 715.8,222.9 718.8,223.1 721.8,223.9 724.8,224.8 727.8,225.5 730.8,226.0 733.8,226.3 736.8,226.7 739.8,227.3 742.9,228.1 745.9,228.9 748.9,229.5 751.9,229.7 754.9,229.5 757.9,228.9 760.9,228.0 763.9,227.3 766.9,227.1 769.9,227.7 772.9,229.4 775.9,232.1 778.9,235.4 782.0,238.5 785.0,240.7 788.0,241.2 791.0,239.7 794.0,236.5 797.0,232.4 800.0,228.5 803.0,226.1 806.0,225.6 809.0,227.0 812.0,229.4 815.0,231.7 818.0,232.5 821.1,231.4 824.1,228.5 827.1,224.9 830.1,221.8 833.1,220.5 836.1,221.4 839.1,224.1 842.1,227.7 845.1,230.8 848.1,232.5 851.1,232.6 854.1,231.7 857.1,230.7 860.2,230.6 863.2,231.7 866.2,233.8 869.2,236.0 872.2,237.0 875.2,236.3 878.2,233.7 881.2,230.0 884.2,226.4 887.2,224.3 890.2,224.3 893.2,226.5 896.2,229.9 899.2,233.2 902.3,235.2 905.3,235.2 908.3,233.2 911.3,230.0 914.3,226.8 917.3,224.6 920.3,223.9 923.3,224.7 926.3,226.6 929.3,228.6 932.3,230.3 935.3,231.1 938.3,231.1 941.4,230.7 944.4,230.4 947.4,230.4 950.4,230.9 953.4,231.9 956.4,232.9 959.4,233.6 962.4,233.8 965.4,233.3 968.4,232.3 971.4,230.8 974.4,229.2 977.4,227.8 980.5,226.8 983.5,226.3 986.5,226.4 989.5,227.0 992.5,228.0 995.5,229.2 998.5,230.3 1001.5,231.0 1004.5,231.2 1007.5,230.7 1010.5,229.8 1013.5,228.5 1016.5,227.2 1019.5,226.4 1022.6,226.2 1025.6,226.8 1028.6,228.2 1031.6,230.3 1034.6,232.8 1037.6,235.3 1040.6,237.4 1043.6,238.8 1046.6,239.3 1049.6,238.7 1052.6,237.0 1055.6,234.3 1058.6,231.1 1061.7,227.7 1064.7,224.6 1067.7,222.2 1070.7,220.9 1073.7,220.9 1076.7,222.1 1079.7,224.2 1082.7,226.9 1085.7,229.7 1088.7,232.3 1091.7,234.3 1094.7,235.6 1097.7,236.1 1100.8,235.8 1103.8,234.7 1106.8,232.9 1109.8,230.5 1112.8,227.9 1115.8,225.5 1118.8,223.7 1121.8,223.0 1124.8,223.5 1127.8,225.1 1130.8,227.3 1133.8,229.6 1136.8,231.1 1139.8,231.7 1142.9,231.3 1145.9,230.3 1148.9,229.4 1151.9,229.1 1154.9,229.9 1157.9,231.6 1160.9,233.6 1163.9,235.1 1166.9,235.5 1169.9,234.5 1172.9,232.3 1175.9,229.7 1178.9,227.6 1182.0,226.7 1185.0,227.5 1188.0,229.6 1191.0,232.4 1194.0,234.9 1197.0,236.4 1200.0,236.5" fill="none" stroke="#8d877a" stroke-width="1" stroke-opacity="0.16" stroke-linejoin="round"/>
<polyline points="0.0,276.6 3.0,275.9 6.0,275.3 9.0,274.5 12.0,273.5 15.0,272.8 18.0,273.2 21.1,275.1 24.1,278.4 27.1,282.3 30.1,285.8 33.1,287.9 36.1,288.2 39.1,286.9 42.1,285.0 45.1,283.4 48.1,282.9 51.1,283.5 54.1,284.5 57.1,284.9 60.2,283.7 63.2,280.7 66.2,276.7 69.2,272.9 72.2,270.8 75.2,271.4 78.2,274.6 81.2,279.3 84.2,283.8 87.2,286.5 90.2,286.5 93.2,283.8 96.2,279.6 99.2,275.6 102.3,273.2 105.3,273.3 108.3,275.7 111.3,279.3 114.3,282.6 117.3,284.5 120.3,284.6 123.3,283.0 126.3,280.9 129.3,279.3 132.3,279.1 135.3,280.4 138.3,282.8 141.4,285.2 144.4,286.5 147.4,285.9 150.4,283.4 153.4,279.5 156.4,274.9 159.4,271.0 162.4,268.5 165.4,268.1 168.4,269.8 171.4,273.1 174.4,277.4 177.4,281.7 180.5,285.3 183.5,287.6 186.5,288.3 189.5,287.3 192.5,285.1 195.5,282.2 198.5,279.3 201.5,277.0 204.5,275.8 207.5,275.7 210.5,276.5 213.5,277.9 216.5,279.5 219.5,280.7 222.6,281.7 225.6,282.4 228.6,283.2 231.6,284.1 234.6,285.3 237.6,286.3 240.6,286.7 243.6,286.2 246.6,284.5 249.6,281.8 252.6,278.8 255.6,276.2 258.6,274.6 261.7,274.5 264.7,275.6 267.7,277.2 270.7,278.6 273.7,279.1 276.7,278.3 279.7,276.6 282.7,274.8 285.7,273.9 288.7,274.3 291.7,276.3 294.7,279.5 297.7,282.8 300.8,285.4 303.8,286.4 306.8,285.7 309.8,283.5 312.8,280.6 315.8,277.8 318.8,275.8 321.8,274.9 324.8,275.2 327.8,276.6 330.8,278.7 333.8,281.0 336.8,283.4 339.8,285.3 342.9,286.3 345.9,286.2 348.9,284.8 351.9,282.3 354.9,279.4 357.9,276.9 360.9,275.6 363.9,276.2 366.9,278.4 369.9,281.6 372.9,284.4 375.9,285.8 378.9,285.0 382.0,282.2 385.0,278.3 388.0,274.6 391.0,272.6 394.0,273.1 397.0,275.7 400.0,279.5 403.0,283.0 406.0,284.9 409.0,284.6 412.0,282.5 415.0,279.7 418.0,277.6 421.1,277.2 424.1,278.8 427.1,281.7 430.1,284.6 433.1,286.2 436.1,285.5 439.1,282.8 442.1,278.7 445.1,274.7 448.1,272.0 451.1,271.4 454.1,272.8 457.1,275.6 460.2,278.4 463.2,280.4 466.2,281.1 469.2,280.6 472.2,279.5 475.2,278.7 478.2,278.8 481.2,279.9 484.2,281.6 487.2,283.1 490.2,284.0 493.2,283.9 496.2,282.9 499.2,281.6 502.3,280.7 505.3,280.7 508.3,281.7 511.3,283.2 514.3,284.4 517.3,284.9 520.3,284.1 523.3,282.3 526.3,280.1 529.3,278.3 532.3,277.5 535.3,277.8 538.3,279.0 541.4,280.0 544.4,280.2 547.4,278.9 550.4,276.3 553.4,273.0 556.4,270.3 559.4,269.4 562.4,270.8 565.4,274.6 568.4,279.7 571.4,285.0 574.4,288.9 577.4,290.6 580.5,290.0 583.5,287.5 586.5,284.2 589.5,281.1 592.5,279.0 595.5,278.1 598.5,278.1 601.5,278.3 604.5,278.3 607.5,277.8 610.5,277.0 613.5,276.2 616.5,275.9 619.5,276.4 622.6,277.5 625.6,279.0 628.6,280.6 631.6,282.0 634.6,283.0 637.6,283.7 640.6,284.0 643.6,283.9 646.6,283.4 649.6,282.3 652.6,280.6 655.6,278.6 658.6,276.7 661.7,275.5 664.7,275.6 667.7,277.1 670.7,279.8 673.7,282.9 676.7,285.4 679.7,286.5 682.7,285.7 685.7,283.2 688.7,279.9 691.7,276.6 694.7,274.5 697.7,273.9 700.8,274.9 703.8,277.0 706.8,279.4 709.8,281.5 712.8,282.9 715.8,283.4 718.8,283.1 721.8,282.3 724.8,281.0 727.8,279.4 730.8,277.8 733.8,276.1 736.8,274.7 739.8,273.9 742.9,274.1 745.9,275.2 748.9,277.1 751.9,279.4 754.9,281.7 757.9,283.4 760.9,284.4 763.9,284.9 766.9,285.1 769.9,285.3 772.9,285.8 775.9,286.4 778.9,286.7 782.0,286.4 785.0,285.0 788.0,282.7 791.0,279.8 794.0,276.9 797.0,274.5 800.0,272.9 803.0,272.5 806.0,272.9 809.0,273.9 812.0,275.3 815.0,276.9 818.0,278.7 821.1,280.6 824.1,282.3 827.1,283.6 830.1,284.1 833.1,283.5 836.1,281.8 839.1,279.5 842.1,277.2 845.1,275.7 848.1,275.5 851.1,276.7 854.1,278.8 857.1,281.0 860.2,282.4 863.2,282.4 866.2,281.0 869.2,278.9 872.2,276.8 875.2,275.9 878.2,276.7 881.2,279.2 884.2,282.8 887.2,286.3 890.2,288.7 893.2,289.2 896.2,287.8 899.2,284.8 902.3,281.3 905.3,278.3 908.3,276.5 911.3,276.4 914.3,277.9 917.3,280.3 920.3,282.7 923.3,284.4 926.3,284.8 929.3,283.8 932.3,281.4 935.3,278.3 938.3,275.1 941.4,272.6 944.4,271.3 947.4,271.3 950.4,272.6 953.4,274.7 956.4,277.1 959.4,279.2 962.4,280.7 965.4,281.4 968.4,281.5 971.4,281.2 974.4,280.6 977.4,280.1 980.5,279.5 983.5,278.8 986.5,278.1 989.5,277.4 992.5,277.2 995.5,277.7 998.5,279.4 1001.5,282.3 1004.5,286.1 1007.5,290.0 1010.5,292.8 1013.5,293.6 1016.5,291.7 1019.5,287.2 1022.6,281.1 1025.6,274.9 1028.6,270.2 1031.6,268.5 1034.6,270.0 1037.6,274.2 1040.6,279.7 1043.6,284.7 1046.6,287.5 1049.6,287.6 1052.6,285.1 1055.6,281.2 1058.6,277.7 1061.7,275.9 1064.7,276.3 1067.7,278.6 1070.7,281.3 1073.7,282.9 1076.7,282.2 1079.7,279.0 1082.7,274.2 1085.7,269.3 1088.7,266.3 1091.7,266.3 1094.7,269.4 1097.7,274.6 1100.8,280.0 1103.8,283.9 1106.8,285.3 1109.8,284.1 1112.8,281.5 1115.8,279.3 1118.8,278.8 1121.8,280.8 1124.8,284.8 1127.8,289.4 1130.8,293.1 1133.8,294.5 1136.8,293.3 1139.8,290.0 1142.9,285.8 1145.9,281.9 1148.9,279.1 1151.9,277.4 1154.9,276.4 1157.9,275.4 1160.9,273.9 1163.9,272.2 1166.9,270.8 1169.9,270.7 1172.9,272.4 1175.9,275.7 1178.9,279.9 1182.0,283.7 1185.0,286.2 1188.0,286.7 1191.0,285.3 1194.0,282.8 1197.0,280.1 1200.0,277.9" fill="none" stroke="#8d877a" stroke-width="1" stroke-opacity="0.16" stroke-linejoin="round"/>
<polyline points="0.0,336.7 3.0,338.0 6.0,338.3 9.0,337.3 12.0,335.0 15.0,331.8 18.0,328.4 21.1,325.8 24.1,324.4 27.1,324.3 30.1,325.0 33.1,326.0 36.1,326.7 39.1,326.9 42.1,326.7 45.1,326.7 48.1,327.3 51.1,328.8 54.1,330.9 57.1,333.0 60.2,334.5 63.2,334.9 66.2,334.0 69.2,332.1 72.2,330.0 75.2,328.3 78.2,327.6 81.2,327.9 84.2,328.9 87.2,330.0 90.2,330.8 93.2,330.9 96.2,330.4 99.2,329.5 102.3,328.6 105.3,327.9 108.3,327.5 111.3,327.3 114.3,327.1 117.3,327.0 120.3,327.0 123.3,327.2 126.3,327.6 129.3,328.1 132.3,328.6 135.3,329.0 138.3,329.2 141.4,329.3 144.4,329.6 147.4,330.5 150.4,332.0 153.4,334.1 156.4,336.1 159.4,337.6 162.4,338.1 165.4,337.5 168.4,336.2 171.4,335.0 174.4,334.4 177.4,334.8 180.5,335.8 183.5,336.7 186.5,336.4 189.5,334.2 192.5,330.2 195.5,324.9 198.5,319.9 201.5,316.5 204.5,315.8 207.5,318.0 210.5,322.1 213.5,326.6 216.5,329.7 219.5,330.5 222.6,328.7 225.6,325.3 228.6,321.9 231.6,320.1 234.6,320.9 237.6,324.3 240.6,329.2 243.6,334.1 246.6,337.6 249.6,338.8 252.6,337.8 255.6,335.6 258.6,333.6 261.7,332.8 264.7,333.8 267.7,335.9 270.7,338.2 273.7,339.3 276.7,338.4 279.7,335.5 282.7,331.4 285.7,327.4 288.7,324.9 291.7,324.6 294.7,326.4 297.7,329.2 300.8,331.7 303.8,332.6 306.8,331.6 309.8,329.1 312.8,326.3 315.8,324.6 318.8,324.9 321.8,327.1 324.8,330.3 327.8,332.9 330.8,333.5 333.8,331.5 336.8,327.5 339.8,322.9 342.9,319.6 345.9,319.3 348.9,322.4 351.9,328.1 354.9,334.5 357.9,339.5 360.9,341.3 363.9,339.2 366.9,334.2 369.9,327.9 372.9,322.4 375.9,319.5 378.9,319.8 382.0,322.8 385.0,327.4 388.0,331.8 391.0,335.1 394.0,336.7 397.0,336.9 400.0,336.3 403.0,335.7 406.0,335.3 409.0,335.2 412.0,334.9 415.0,334.1 418.0,332.6 421.1,330.7 424.1,328.9 427.1,327.7 430.1,327.5 433.1,328.3 436.1,329.5 439.1,330.6 442.1,331.1 445.1,330.7 448.1,329.7 451.1,328.3 454.1,326.9 457.1,326.0 460.2,325.4 463.2,325.2 466.2,325.0 469.2,325.0 472.2,325.1 475.2,325.5 478.2,326.5 481.2,327.9 484.2,329.5 487.2,330.8 490.2,331.6 493.2,331.5 496.2,330.9 499.2,330.3 502.3,330.3 505.3,331.5 508.3,333.8 511.3,336.8 514.3,339.5 517.3,340.7 520.3,339.8 523.3,336.6 526.3,331.7 529.3,326.5 532.3,322.5 535.3,320.7 538.3,321.9 541.4,325.4 544.4,330.3 547.4,334.9 550.4,337.7 553.4,337.8 556.4,335.4 559.4,331.1 562.4,326.4 565.4,322.7 568.4,321.1 571.4,321.9 574.4,324.5 577.4,327.9 580.5,330.8 583.5,332.3 586.5,332.0 589.5,330.2 592.5,327.9 595.5,325.9 598.5,325.3 601.5,326.2 604.5,328.6 607.5,331.7 610.5,334.7 613.5,336.7 616.5,337.5 619.5,336.9 622.6,335.5 625.6,333.7 628.6,331.9 631.6,330.4 634.6,329.2 637.6,328.0 640.6,326.9 643.6,325.9 646.6,325.2 649.6,325.1 652.6,325.9 655.6,327.3 658.6,329.1 661.7,330.8 664.7,332.0 667.7,332.4 670.7,332.2 673.7,331.8 676.7,331.7 679.7,332.2 682.7,333.2 685.7,334.3 688.7,334.8 691.7,334.1 694.7,331.9 697.7,328.5 700.8,324.8 703.8,321.7 706.8,320.2 709.8,320.7 712.8,323.1 715.8,326.6 718.8,330.2 721.8,333.0 724.8,334.5 727.8,334.7 730.8,334.2 733.8,333.6 736.8,333.2 739.8,333.2 742.9,333.4 745.9,333.2 748.9,332.5 751.9,331.1 754.9,329.4 757.9,327.9 760.9,327.2 763.9,327.6 766.9,329.0 769.9,330.9 772.9,332.6 775.9,333.5 778.9,333.1 782.0,331.4 785.0,328.8 788.0,326.0 791.0,323.4 794.0,321.8 797.0,321.3 800.0,322.0 803.0,323.8 806.0,326.2 809.0,329.1 812.0,331.9 815.0,334.4 818.0,336.2 821.1,337.3 824.1,337.7 827.1,337.4 830.1,336.7 833.1,335.8 836.1,334.6 839.1,333.3 842.1,331.7 845.1,329.7 848.1,327.5 851.1,325.5 854.1,324.0 857.1,323.5 860.2,324.2 863.2,326.1 866.2,328.5 869.2,330.7 872.2,332.2 875.2,332.4 878.2,331.5 881.2,330.1 884.2,328.9 887.2,328.5 890.2,329.3 893.2,330.9 896.2,332.6 899.2,333.5 902.3,333.0 905.3,330.9 908.3,327.6 911.3,324.2 914.3,321.6 917.3,320.7 920.3,321.9 923.3,324.9 926.3,329.0 929.3,333.2 932.3,336.8 935.3,339.1 938.3,340.0 941.4,339.7 944.4,338.2 947.4,336.0 950.4,333.3 953.4,330.3 956.4,327.2 959.4,324.6 962.4,322.8 965.4,322.3 968.4,323.3 971.4,325.6 974.4,328.7 977.4,332.0 980.5,334.5 983.5,335.8 986.5,335.7 989.5,334.4 992.5,332.3 995.5,330.3 998.5,328.7 1001.5,327.9 1004.5,327.8 1007.5,328.2 1010.5,328.7 1013.5,329.1 1016.5,329.2 1019.5,328.9 1022.6,328.5 1025.6,327.8 1028.6,327.0 1031.6,326.1 1034.6,325.3 1037.6,324.8 1040.6,324.9 1043.6,325.8 1046.6,327.6 1049.6,330.2 1052.6,333.2 1055.6,335.8 1058.6,337.7 1061.7,338.4 1064.7,337.8 1067.7,336.3 1070.7,334.2 1073.7,332.2 1076.7,330.4 1079.7,329.0 1082.7,327.7 1085.7,326.5 1088.7,325.4 1091.7,324.5 1094.7,324.4 1097.7,325.5 1100.8,327.9 1103.8,331.4 1106.8,335.2 1109.8,338.4 1112.8,340.0 1115.8,339.4 1118.8,336.7 1121.8,332.6 1124.8,328.1 1127.8,324.6 1130.8,322.9 1133.8,323.2 1136.8,325.3 1139.8,328.1 1142.9,330.7 1145.9,332.1 1148.9,331.9 1151.9,330.0 1154.9,327.0 1157.9,323.8 1160.9,321.4 1163.9,320.3 1166.9,320.9 1169.9,323.1 1172.9,326.3 1175.9,329.7 1178.9,332.6 1182.0,334.5 1185.0,335.2 1188.0,335.0 1191.0,334.4 1194.0,334.0 1197.0,334.2 1200.0,335.3" fill="none" stroke="#8d877a" stroke-width="1" stroke-opacity="0.16" stroke-linejoin="round"/>
<polyline points="0.0,376.1 3.0,378.5 6.0,379.6 9.0,379.6 12.0,379.2 15.0,379.2 18.0,380.3 21.1,382.4 24.1,385.1 27.1,387.4 30.1,388.4 33.1,387.7 36.1,385.1 39.1,381.4 42.1,377.7 45.1,375.0 48.1,374.1 51.1,375.1 54.1,377.5 57.1,380.4 60.2,382.8 63.2,384.0 66.2,383.8 69.2,382.6 72.2,380.9 75.2,379.5 78.2,378.7 81.2,378.8 84.2,379.1 87.2,379.2 90.2,378.6 93.2,377.4 96.2,375.9 99.2,375.0 102.3,375.1 105.3,376.6 108.3,379.2 111.3,382.1 114.3,384.2 117.3,384.7 120.3,383.5 123.3,381.1 126.3,378.6 129.3,377.3 132.3,378.0 135.3,380.8 138.3,384.7 141.4,388.3 144.4,390.0 147.4,389.1 150.4,385.4 153.4,380.2 156.4,374.9 159.4,371.3 162.4,370.4 165.4,372.1 168.4,375.5 171.4,379.1 174.4,381.3 177.4,381.4 180.5,379.6 183.5,377.1 186.5,375.1 189.5,375.0 192.5,377.2 195.5,381.1 198.5,385.5 201.5,388.7 204.5,389.5 207.5,387.4 210.5,383.0 213.5,377.5 216.5,372.6 219.5,369.7 222.6,369.5 225.6,371.9 228.6,376.1 231.6,380.8 234.6,384.7 237.6,387.1 240.6,387.7 243.6,386.8 246.6,385.1 249.6,383.3 252.6,382.0 255.6,381.2 258.6,381.0 261.7,381.1 264.7,381.0 267.7,380.6 270.7,380.1 273.7,379.5 276.7,379.1 279.7,379.1 282.7,379.3 285.7,379.7 288.7,379.9 291.7,379.9 294.7,379.4 297.7,378.8 300.8,378.2 303.8,377.9 306.8,377.8 309.8,377.8 312.8,377.6 315.8,377.0 318.8,375.8 321.8,374.4 324.8,373.4 327.8,373.2 330.8,374.4 333.8,376.9 336.8,380.2 339.8,383.5 342.9,385.8 345.9,386.4 348.9,385.4 351.9,383.3 354.9,381.0 357.9,379.6 360.9,379.8 363.9,381.7 366.9,384.9 369.9,388.4 372.9,391.0 375.9,391.9 378.9,390.8 382.0,388.1 385.0,384.3 388.0,380.3 391.0,376.8 394.0,374.1 397.0,372.3 400.0,371.3 403.0,370.9 406.0,370.9 409.0,371.3 412.0,372.1 415.0,373.3 418.0,374.8 421.1,376.4 424.1,377.9 427.1,379.0 430.1,379.7 433.1,380.0 436.1,380.0 439.1,380.0 442.1,380.2 445.1,380.6 448.1,381.3 451.1,382.2 454.1,383.3 457.1,384.6 460.2,385.9 463.2,387.0 466.2,388.0 469.2,388.5 472.2,388.3 475.2,387.2 478.2,385.4 481.2,382.9 484.2,380.1 487.2,377.3 490.2,375.2 493.2,374.0 496.2,373.9 499.2,374.9 502.3,376.6 505.3,378.5 508.3,379.8 511.3,380.1 514.3,379.1 517.3,377.0 520.3,374.5 523.3,372.2 526.3,371.1 529.3,371.7 532.3,374.0 535.3,377.6 538.3,381.5 541.4,384.7 544.4,386.6 547.4,386.7 550.4,385.5 553.4,383.7 556.4,382.1 559.4,381.5 562.4,381.9 565.4,383.0 568.4,384.0 571.4,384.4 574.4,383.7 577.4,382.2 580.5,380.4 583.5,378.9 586.5,378.3 589.5,378.6 592.5,379.4 595.5,380.1 598.5,380.1 601.5,379.1 604.5,377.6 607.5,376.1 610.5,375.5 613.5,376.1 616.5,377.9 619.5,380.2 622.6,382.0 625.6,382.6 628.6,381.6 631.6,379.5 634.6,377.1 637.6,375.6 640.6,375.7 643.6,377.7 646.6,380.8 649.6,383.9 652.6,385.9 655.6,385.8 658.6,383.8 661.7,380.6 664.7,377.4 667.7,375.4 670.7,375.3 673.7,376.9 676.7,379.5 679.7,381.9 682.7,383.1 685.7,382.7 688.7,381.1 691.7,379.1 694.7,377.7 697.7,377.8 700.8,379.4 703.8,382.0 706.8,384.5 709.8,385.9 712.8,385.4 715.8,383.0 718.8,379.5 721.8,376.0 724.8,373.6 727.8,373.1 730.8,374.8 733.8,378.2 736.8,382.3 739.8,386.1 742.9,388.4 745.9,388.7 748.9,386.9 751.9,383.2 754.9,378.6 757.9,374.1 760.9,370.6 763.9,368.8 766.9,369.2 769.9,371.7 772.9,375.4 775.9,379.6 778.9,383.1 782.0,385.1 785.0,385.1 788.0,383.3 791.0,380.4 794.0,377.6 797.0,375.9 800.0,375.9 803.0,377.9 806.0,381.2 809.0,385.1 812.0,388.4 815.0,390.4 818.0,390.6 821.1,389.2 824.1,386.7 827.1,383.9 830.1,381.3 833.1,379.4 836.1,378.0 839.1,377.1 842.1,376.3 845.1,375.3 848.1,374.1 851.1,372.8 854.1,371.8 857.1,371.3 860.2,371.6 863.2,372.8 866.2,374.8 869.2,377.6 872.2,380.7 875.2,383.9 878.2,386.6 881.2,388.4 884.2,389.0 887.2,388.3 890.2,386.4 893.2,383.6 896.2,380.4 899.2,377.4 902.3,375.2 905.3,373.9 908.3,373.8 911.3,374.7 914.3,376.3 917.3,378.1 920.3,380.0 923.3,381.7 926.3,383.0 929.3,383.9 932.3,384.2 935.3,384.0 938.3,383.4 941.4,382.3 944.4,381.1 947.4,380.1 950.4,379.4 953.4,379.4 956.4,379.9 959.4,380.8 962.4,381.8 965.4,382.4 968.4,382.3 971.4,381.4 974.4,379.8 977.4,377.8 980.5,375.8 983.5,374.4 986.5,373.7 989.5,374.1 992.5,375.3 995.5,377.2 998.5,379.5 1001.5,381.8 1004.5,383.7 1007.5,385.1 1010.5,385.6 1013.5,385.4 1016.5,384.3 1019.5,382.3 1022.6,379.9 1025.6,377.2 1028.6,374.7 1031.6,372.9 1034.6,372.4 1037.6,373.3 1040.6,375.6 1043.6,379.0 1046.6,382.7 1049.6,385.9 1052.6,387.7 1055.6,387.7 1058.6,385.9 1061.7,382.8 1064.7,379.4 1067.7,376.8 1070.7,375.9 1073.7,376.9 1076.7,379.7 1079.7,383.2 1082.7,386.2 1085.7,387.7 1088.7,387.0 1091.7,384.1 1094.7,379.7 1097.7,375.1 1100.8,371.6 1103.8,370.0 1106.8,370.7 1109.8,373.3 1112.8,376.9 1115.8,380.3 1118.8,382.7 1121.8,383.7 1124.8,383.4 1127.8,382.3 1130.8,381.2 1133.8,380.3 1136.8,379.9 1139.8,379.8 1142.9,379.5 1145.9,378.8 1148.9,377.6 1151.9,376.5 1154.9,376.1 1157.9,377.0 1160.9,379.7 1163.9,383.7 1166.9,388.1 1169.9,391.8 1172.9,393.4 1175.9,392.1 1178.9,388.2 1182.0,382.3 1185.0,376.0 1188.0,370.8 1191.0,367.8 1194.0,367.4 1197.0,369.4 1200.0,372.7" fill="none" stroke="#8d877a" stroke-width="1" stroke-opacity="0.16" stroke-linejoin="round"/>
<polyline points="0.0,425.0 3.0,426.8 6.0,430.2 9.0,434.5 12.0,438.4 15.0,440.6 18.0,440.1 21.1,437.0 24.1,432.4 27.1,427.8 30.1,425.0 33.1,424.9 36.1,427.8 39.1,432.7 42.1,438.0 45.1,442.2 48.1,444.0 51.1,443.1 54.1,439.9 57.1,435.3 60.2,430.3 63.2,425.6 66.2,421.7 69.2,418.6 72.2,416.4 75.2,415.3 78.2,415.5 81.2,417.1 84.2,419.9 87.2,423.5 90.2,427.2 93.2,430.2 96.2,431.9 99.2,432.4 102.3,432.1 105.3,431.8 108.3,432.1 111.3,433.1 114.3,434.7 117.3,436.0 120.3,436.3 123.3,435.3 126.3,433.1 129.3,430.6 132.3,428.9 135.3,428.8 138.3,430.6 141.4,433.6 144.4,436.8 147.4,438.7 150.4,438.5 153.4,435.8 156.4,431.3 159.4,426.5 162.4,422.6 165.4,420.8 168.4,421.4 171.4,423.9 174.4,427.5 177.4,430.9 180.5,433.3 183.5,434.1 186.5,433.5 189.5,431.8 192.5,429.6 195.5,427.5 198.5,425.9 201.5,425.0 204.5,425.0 207.5,425.7 210.5,427.2 213.5,429.1 216.5,431.3 219.5,433.3 222.6,434.6 225.6,434.8 228.6,433.9 231.6,431.9 234.6,429.4 237.6,427.1 240.6,425.6 243.6,425.4 246.6,426.5 249.6,428.7 252.6,431.3 255.6,433.6 258.6,434.8 261.7,434.6 264.7,433.1 267.7,430.7 270.7,428.3 273.7,426.5 276.7,426.1 279.7,427.0 282.7,428.9 285.7,431.3 288.7,433.2 291.7,434.0 294.7,433.6 297.7,432.2 300.8,430.4 303.8,429.0 306.8,428.6 309.8,429.3 312.8,430.8 315.8,432.4 318.8,433.5 321.8,433.4 324.8,432.3 327.8,430.5 330.8,428.7 333.8,427.6 336.8,427.5 339.8,428.1 342.9,429.1 345.9,429.6 348.9,429.4 351.9,428.3 354.9,426.7 357.9,425.3 360.9,424.6 363.9,425.1 366.9,426.5 369.9,428.4 372.9,430.2 375.9,431.2 378.9,431.4 382.0,431.0 385.0,430.6 388.0,430.8 391.0,431.7 394.0,433.1 397.0,434.4 400.0,434.9 403.0,434.1 406.0,432.0 409.0,429.3 412.0,426.7 415.0,425.2 418.0,425.3 421.1,426.9 424.1,429.3 427.1,431.7 430.1,433.1 433.1,433.1 436.1,432.0 439.1,430.5 442.1,429.7 445.1,430.3 448.1,432.7 451.1,436.1 454.1,439.5 457.1,441.4 460.2,441.0 463.2,437.9 466.2,432.7 469.2,426.6 472.2,421.1 475.2,417.6 478.2,416.4 481.2,417.5 484.2,419.9 487.2,422.4 490.2,424.3 493.2,425.3 496.2,425.7 499.2,426.3 502.3,427.8 505.3,430.5 508.3,434.0 511.3,437.6 514.3,440.0 517.3,440.4 520.3,438.5 523.3,434.8 526.3,430.3 529.3,426.6 532.3,424.6 535.3,424.8 538.3,426.9 541.4,430.0 544.4,432.9 547.4,434.5 550.4,434.4 553.4,432.8 556.4,430.3 559.4,428.1 562.4,426.9 565.4,427.2 568.4,428.8 571.4,431.3 574.4,433.7 577.4,435.3 580.5,435.8 583.5,435.0 586.5,433.3 589.5,431.3 592.5,429.6 595.5,428.5 598.5,428.3 601.5,428.7 604.5,429.3 607.5,429.6 610.5,429.1 613.5,427.8 616.5,425.8 619.5,423.6 622.6,422.0 625.6,421.5 628.6,422.3 631.6,424.3 634.6,427.2 637.6,430.2 640.6,432.5 643.6,433.9 646.6,434.1 649.6,433.5 652.6,432.7 655.6,432.1 658.6,432.1 661.7,432.6 664.7,433.4 667.7,434.0 670.7,434.2 673.7,433.7 676.7,432.7 679.7,431.6 682.7,430.6 685.7,430.1 688.7,429.9 691.7,429.8 694.7,429.6 697.7,429.1 700.8,428.3 703.8,427.6 706.8,427.3 709.8,427.6 712.8,428.6 715.8,429.8 718.8,430.8 721.8,431.0 724.8,430.2 727.8,428.5 730.8,426.5 733.8,424.9 736.8,424.3 739.8,425.0 742.9,426.7 745.9,428.9 748.9,430.7 751.9,431.8 754.9,431.9 757.9,431.5 760.9,431.1 763.9,431.4 766.9,432.9 769.9,435.2 772.9,437.9 775.9,439.8 778.9,440.2 782.0,438.8 785.0,435.9 788.0,432.1 791.0,428.6 794.0,426.1 797.0,425.1 800.0,425.2 803.0,425.8 806.0,426.1 809.0,425.5 812.0,424.0 815.0,422.1 818.0,420.5 821.1,420.1 824.1,421.3 827.1,424.1 830.1,427.7 833.1,431.4 836.1,434.2 839.1,435.6 842.1,435.7 845.1,434.9 848.1,433.6 851.1,432.6 854.1,431.9 857.1,431.6 860.2,431.6 863.2,431.5 866.2,431.4 869.2,431.3 872.2,431.4 875.2,431.9 878.2,432.6 881.2,433.4 884.2,433.8 887.2,433.5 890.2,432.6 893.2,431.3 896.2,430.1 899.2,429.5 902.3,429.8 905.3,430.8 908.3,431.9 911.3,432.6 914.3,432.1 917.3,430.3 920.3,427.5 923.3,424.4 926.3,421.8 929.3,420.5 932.3,420.8 935.3,422.5 938.3,425.0 941.4,427.8 944.4,430.1 947.4,431.8 950.4,432.7 953.4,433.2 956.4,433.2 959.4,432.9 962.4,432.2 965.4,431.0 968.4,429.2 971.4,427.1 974.4,425.4 977.4,424.5 980.5,425.1 983.5,427.2 986.5,430.3 989.5,433.9 992.5,436.8 995.5,438.5 998.5,438.4 1001.5,437.0 1004.5,434.9 1007.5,433.0 1010.5,432.2 1013.5,432.5 1016.5,433.8 1019.5,435.4 1022.6,436.2 1025.6,435.5 1028.6,433.1 1031.6,429.3 1034.6,425.1 1037.6,421.5 1040.6,419.5 1043.6,419.7 1046.6,421.8 1049.6,425.0 1052.6,428.3 1055.6,430.3 1058.6,430.4 1061.7,428.5 1064.7,425.5 1067.7,422.4 1070.7,420.5 1073.7,420.8 1076.7,423.4 1079.7,427.7 1082.7,432.6 1085.7,436.7 1088.7,438.9 1091.7,438.9 1094.7,437.1 1097.7,434.4 1100.8,432.0 1103.8,430.7 1106.8,430.9 1109.8,432.3 1112.8,434.1 1115.8,435.6 1118.8,436.3 1121.8,436.1 1124.8,435.2 1127.8,434.2 1130.8,433.4 1133.8,432.8 1136.8,432.1 1139.8,431.0 1142.9,429.1 1145.9,426.6 1148.9,423.9 1151.9,421.7 1154.9,420.7 1157.9,421.1 1160.9,422.9 1163.9,425.3 1166.9,427.7 1169.9,429.4 1172.9,430.3 1175.9,430.4 1178.9,430.2 1182.0,429.9 1185.0,429.7 1188.0,429.4 1191.0,428.6 1194.0,427.4 1197.0,426.0 1200.0,424.9" fill="none" stroke="#8d877a" stroke-width="1" stroke-opacity="0.16" stroke-linejoin="round"/>
<polyline points="0.0,482.1 3.0,478.5 6.0,475.3 9.0,473.3 12.0,473.2 15.0,474.9 18.0,478.0 21.1,481.5 24.1,484.5 27.1,485.9 30.1,485.4 33.1,483.3 36.1,480.3 39.1,477.3 42.1,475.3 45.1,474.7 48.1,475.6 51.1,477.4 54.1,479.2 57.1,480.3 60.2,480.5 63.2,479.9 66.2,478.9 69.2,478.3 72.2,478.5 75.2,479.7 78.2,481.4 81.2,483.2 84.2,484.4 87.2,484.9 90.2,484.6 93.2,483.8 96.2,482.9 99.2,482.2 102.3,481.5 105.3,480.6 108.3,479.4 111.3,477.6 114.3,475.5 117.3,473.5 120.3,472.3 123.3,472.5 126.3,474.1 129.3,477.1 132.3,480.8 135.3,484.5 138.3,487.5 141.4,489.4 144.4,490.0 147.4,489.3 150.4,487.5 153.4,484.8 156.4,481.4 159.4,477.6 162.4,474.0 165.4,470.9 168.4,469.0 171.4,468.7 174.4,470.2 177.4,473.0 180.5,476.6 183.5,480.1 186.5,482.6 189.5,483.7 192.5,483.6 195.5,482.6 198.5,481.4 201.5,480.8 204.5,481.0 207.5,482.0 210.5,483.2 213.5,484.2 216.5,484.5 219.5,484.0 222.6,482.9 225.6,481.8 228.6,481.0 231.6,480.6 234.6,480.6 237.6,480.4 240.6,479.7 243.6,478.4 246.6,476.7 249.6,475.2 252.6,474.9 255.6,476.1 258.6,479.0 261.7,483.0 264.7,486.7 267.7,488.9 270.7,488.5 273.7,485.3 276.7,480.0 279.7,474.0 282.7,469.1 285.7,466.7 288.7,467.3 291.7,470.5 294.7,475.1 297.7,479.5 300.8,482.5 303.8,483.6 306.8,483.0 309.8,481.8 312.8,481.0 315.8,481.3 318.8,482.8 321.8,484.9 324.8,486.6 327.8,486.9 330.8,485.6 333.8,483.0 336.8,480.0 339.8,477.8 342.9,477.1 345.9,478.1 348.9,480.5 351.9,483.2 354.9,485.2 357.9,485.8 360.9,484.8 363.9,482.6 366.9,480.0 369.9,477.6 372.9,476.0 375.9,475.3 378.9,475.4 382.0,475.9 385.0,476.4 388.0,476.8 391.0,477.0 394.0,477.1 397.0,477.2 400.0,477.4 403.0,477.7 406.0,478.2 409.0,478.9 412.0,479.7 415.0,480.5 418.0,481.2 421.1,481.5 424.1,481.3 427.1,480.5 430.1,479.4 433.1,478.1 436.1,477.3 439.1,477.3 442.1,478.4 445.1,480.3 448.1,482.6 451.1,484.6 454.1,485.8 457.1,485.8 460.2,484.8 463.2,483.1 466.2,481.6 469.2,481.0 472.2,481.5 475.2,483.2 478.2,485.6 481.2,487.7 484.2,488.6 487.2,487.8 490.2,484.9 493.2,480.6 496.2,475.8 499.2,471.6 502.3,468.9 505.3,468.5 508.3,470.0 511.3,472.8 514.3,475.6 517.3,477.4 520.3,477.5 523.3,476.1 526.3,474.0 529.3,472.6 532.3,472.9 535.3,475.4 538.3,479.8 541.4,484.9 544.4,488.9 547.4,490.6 550.4,489.4 553.4,485.6 556.4,480.7 559.4,476.3 562.4,474.1 565.4,474.7 568.4,477.8 571.4,482.4 574.4,486.9 577.4,489.9 580.5,491.0 583.5,490.1 586.5,487.8 589.5,485.1 592.5,482.4 595.5,480.1 598.5,478.0 601.5,476.1 604.5,474.3 607.5,472.8 610.5,472.1 613.5,472.7 616.5,474.5 619.5,477.3 622.6,480.3 625.6,482.6 628.6,483.6 631.6,483.2 634.6,481.7 637.6,479.7 640.6,477.9 643.6,476.9 646.6,476.7 649.6,477.1 652.6,477.8 655.6,478.3 658.6,478.6 661.7,478.6 664.7,478.6 667.7,478.7 670.7,478.8 673.7,479.2 676.7,479.5 679.7,479.9 682.7,480.5 685.7,481.3 688.7,482.4 691.7,483.8 694.7,485.1 697.7,485.9 700.8,485.9 703.8,485.0 706.8,483.2 709.8,481.1 712.8,479.1 715.8,477.9 718.8,477.6 721.8,478.3 724.8,479.6 727.8,481.0 730.8,482.2 733.8,482.7 736.8,482.4 739.8,481.3 742.9,479.6 745.9,477.6 748.9,475.6 751.9,474.0 754.9,473.4 757.9,473.9 760.9,475.5 763.9,478.1 766.9,481.0 769.9,483.5 772.9,484.9 775.9,484.7 778.9,483.1 782.0,480.4 785.0,477.6 788.0,475.5 791.0,474.7 794.0,475.5 797.0,477.7 800.0,480.7 803.0,483.8 806.0,486.1 809.0,487.1 812.0,486.6 815.0,484.4 818.0,481.1 821.1,477.3 824.1,473.8 827.1,471.4 830.1,470.9 833.1,472.5 836.1,475.8 839.1,480.0 842.1,484.1 845.1,486.9 848.1,487.7 851.1,486.7 854.1,484.4 857.1,482.0 860.2,480.7 863.2,481.0 866.2,482.8 869.2,485.2 872.2,486.9 875.2,486.8 878.2,484.5 881.2,480.3 884.2,475.3 887.2,471.2 890.2,469.2 893.2,469.7 896.2,472.5 899.2,476.4 902.3,480.0 905.3,482.3 908.3,482.9 911.3,481.9 914.3,480.2 917.3,478.8 920.3,478.1 923.3,478.3 926.3,478.7 929.3,478.8 932.3,477.9 935.3,476.3 938.3,474.3 941.4,472.9 944.4,473.1 947.4,475.3 950.4,479.5 953.4,484.9 956.4,490.1 959.4,494.0 962.4,495.5 965.4,494.4 968.4,491.2 971.4,486.8 974.4,482.4 977.4,479.0 980.5,477.1 983.5,476.8 986.5,477.4 989.5,478.2 992.5,478.4 995.5,477.9 998.5,476.6 1001.5,475.1 1004.5,473.8 1007.5,473.4 1010.5,474.1 1013.5,475.5 1016.5,477.1 1019.5,478.3 1022.6,478.5 1025.6,477.9 1028.6,476.6 1031.6,475.4 1034.6,475.0 1037.6,476.0 1040.6,478.4 1043.6,481.8 1046.6,485.4 1049.6,488.3 1052.6,489.9 1055.6,490.0 1058.6,489.0 1061.7,487.4 1064.7,485.8 1067.7,484.4 1070.7,483.2 1073.7,481.8 1076.7,480.0 1079.7,477.5 1082.7,474.5 1085.7,471.8 1088.7,470.2 1091.7,470.4 1094.7,472.5 1097.7,476.2 1100.8,480.4 1103.8,484.0 1106.8,485.9 1109.8,485.7 1112.8,483.7 1115.8,480.8 1118.8,478.2 1121.8,476.5 1124.8,476.4 1127.8,477.4 1130.8,478.9 1133.8,480.0 1136.8,480.3 1139.8,479.7 1142.9,478.8 1145.9,478.1 1148.9,478.5 1151.9,480.1 1154.9,482.5 1157.9,485.0 1160.9,486.6 1163.9,486.5 1166.9,484.7 1169.9,481.5 1172.9,477.9 1175.9,475.1 1178.9,473.8 1182.0,474.5 1185.0,477.0 1188.0,480.4 1191.0,483.8 1194.0,486.0 1197.0,486.5 1200.0,485.1" fill="none" stroke="#8d877a" stroke-width="1" stroke-opacity="0.16" stroke-linejoin="round"/>
<polyline points="0.0,532.5 3.0,533.6 6.0,533.1 9.0,531.7 12.0,530.5 15.0,530.2 18.0,531.2 21.1,533.3 24.1,535.6 27.1,537.3 30.1,537.6 33.1,536.3 36.1,533.9 39.1,531.0 42.1,528.7 45.1,527.5 48.1,527.7 51.1,529.0 54.1,530.7 57.1,532.2 60.2,532.8 63.2,532.6 66.2,531.7 69.2,530.5 72.2,529.4 75.2,528.7 78.2,528.2 81.2,527.6 84.2,526.9 87.2,525.8 90.2,524.5 93.2,523.4 96.2,522.9 99.2,523.1 102.3,524.0 105.3,525.4 108.3,526.9 111.3,528.2 114.3,529.3 117.3,530.4 120.3,531.7 123.3,533.4 126.3,535.6 129.3,537.7 132.3,539.3 135.3,539.5 138.3,538.2 141.4,535.3 144.4,531.6 147.4,528.0 150.4,525.6 153.4,524.9 156.4,526.3 159.4,529.2 162.4,532.5 165.4,535.4 168.4,536.8 171.4,536.3 174.4,534.2 177.4,531.0 180.5,527.5 183.5,524.7 186.5,523.0 189.5,522.5 192.5,523.2 195.5,524.6 198.5,526.1 201.5,527.5 204.5,528.6 207.5,529.3 210.5,530.0 213.5,530.9 216.5,532.0 219.5,533.3 222.6,534.5 225.6,535.4 228.6,535.4 231.6,534.3 234.6,532.2 237.6,529.3 240.6,526.3 243.6,523.8 246.6,522.4 249.6,522.6 252.6,524.3 255.6,527.1 258.6,530.4 261.7,533.4 264.7,535.6 267.7,536.5 270.7,536.3 273.7,535.1 276.7,533.4 279.7,531.6 282.7,530.0 285.7,528.8 288.7,528.0 291.7,527.7 294.7,527.7 297.7,527.9 300.8,528.0 303.8,528.1 306.8,528.2 309.8,528.3 312.8,528.6 315.8,529.2 318.8,530.3 321.8,531.6 324.8,533.0 327.8,533.9 330.8,533.9 333.8,532.9 336.8,531.1 339.8,528.8 342.9,526.8 345.9,525.7 348.9,526.0 351.9,527.6 354.9,530.1 357.9,532.7 360.9,534.6 363.9,535.3 366.9,534.8 369.9,533.2 372.9,531.2 375.9,529.3 378.9,527.8 382.0,526.6 385.0,525.7 388.0,524.8 391.0,524.0 394.0,523.5 397.0,523.8 400.0,525.4 403.0,528.4 406.0,532.4 409.0,536.5 412.0,539.7 415.0,541.0 418.0,539.9 421.1,536.7 424.1,532.3 427.1,528.0 430.1,524.9 433.1,523.8 436.1,524.6 439.1,526.7 442.1,529.0 445.1,530.4 448.1,530.2 451.1,528.6 454.1,526.0 457.1,523.6 460.2,522.4 463.2,523.1 466.2,525.7 469.2,529.7 472.2,534.2 475.2,538.1 478.2,540.4 481.2,540.6 484.2,538.9 487.2,535.6 490.2,531.6 493.2,527.8 496.2,525.0 499.2,523.7 502.3,524.0 505.3,525.7 508.3,528.1 511.3,530.6 514.3,532.5 517.3,533.4 520.3,533.1 523.3,532.0 526.3,530.4 529.3,528.9 532.3,528.1 535.3,528.2 538.3,529.2 541.4,530.9 544.4,532.8 547.4,534.4 550.4,535.4 553.4,535.3 556.4,534.1 559.4,531.9 562.4,529.0 565.4,526.0 568.4,523.1 571.4,521.1 574.4,520.2 577.4,520.6 580.5,522.4 583.5,525.0 586.5,527.8 589.5,530.4 592.5,532.0 595.5,532.6 598.5,532.5 601.5,532.1 604.5,532.2 607.5,533.1 610.5,534.9 613.5,537.1 616.5,538.8 619.5,539.2 622.6,537.7 625.6,534.5 628.6,530.2 631.6,526.0 634.6,523.2 637.6,522.6 640.6,524.2 643.6,527.3 646.6,530.4 649.6,532.3 652.6,532.2 655.6,530.0 658.6,526.7 661.7,523.7 664.7,522.3 667.7,523.4 670.7,526.8 673.7,531.5 676.7,535.9 679.7,538.7 682.7,538.8 685.7,536.5 688.7,532.6 691.7,528.6 694.7,525.9 697.7,525.2 700.8,526.5 703.8,528.8 706.8,531.0 709.8,532.1 712.8,531.6 715.8,529.9 718.8,528.1 721.8,527.2 724.8,527.9 727.8,530.4 730.8,533.8 733.8,536.8 736.8,538.3 739.8,537.3 742.9,534.0 745.9,529.4 748.9,524.7 751.9,521.4 754.9,520.3 757.9,521.4 760.9,523.9 763.9,526.7 766.9,528.8 769.9,529.8 772.9,530.0 775.9,530.1 778.9,530.8 782.0,532.5 785.0,534.7 788.0,536.6 791.0,536.9 794.0,534.9 797.0,530.8 800.0,525.5 803.0,520.8 806.0,518.5 809.0,519.5 812.0,524.1 815.0,530.8 818.0,537.8 821.1,543.1 824.1,545.2 827.1,543.9 830.1,539.9 833.1,534.7 836.1,529.9 839.1,526.6 842.1,524.9 845.1,524.5 848.1,524.7 851.1,524.8 854.1,524.8 857.1,525.0 860.2,525.9 863.2,527.8 866.2,530.5 869.2,533.3 872.2,535.2 875.2,535.4 878.2,533.6 881.2,530.3 884.2,526.5 887.2,523.7 890.2,522.8 893.2,524.1 896.2,527.1 899.2,530.6 902.3,533.4 905.3,534.5 908.3,533.6 911.3,531.3 914.3,528.4 917.3,526.2 920.3,525.4 923.3,526.3 926.3,528.6 929.3,531.6 932.3,534.5 935.3,536.5 938.3,537.1 941.4,536.5 944.4,534.9 947.4,532.6 950.4,530.3 953.4,528.2 956.4,526.6 959.4,525.8 962.4,525.5 965.4,525.8 968.4,526.4 971.4,527.2 974.4,527.9 977.4,528.7 980.5,529.6 983.5,530.6 986.5,531.7 989.5,533.0 992.5,534.2 995.5,535.0 998.5,535.1 1001.5,534.4 1004.5,532.8 1007.5,530.7 1010.5,528.3 1013.5,526.1 1016.5,524.7 1019.5,524.3 1022.6,525.0 1025.6,526.6 1028.6,528.8 1031.6,531.0 1034.6,532.9 1037.6,533.8 1040.6,533.7 1043.6,532.4 1046.6,530.4 1049.6,528.1 1052.6,526.1 1055.6,525.2 1058.6,525.6 1061.7,527.4 1064.7,530.3 1067.7,533.3 1070.7,535.9 1073.7,537.2 1076.7,536.9 1079.7,535.1 1082.7,532.3 1085.7,529.2 1088.7,526.4 1091.7,524.4 1094.7,523.4 1097.7,523.3 1100.8,524.0 1103.8,525.2 1106.8,526.7 1109.8,528.6 1112.8,530.8 1115.8,533.1 1118.8,535.3 1121.8,536.9 1124.8,537.7 1127.8,537.2 1130.8,535.5 1133.8,532.8 1136.8,529.5 1139.8,526.3 1142.9,523.7 1145.9,522.4 1148.9,522.7 1151.9,524.6 1154.9,527.9 1157.9,532.0 1160.9,536.1 1163.9,539.4 1166.9,541.0 1169.9,540.4 1172.9,537.3 1175.9,532.5 1178.9,526.7 1182.0,521.3 1185.0,517.5 1188.0,516.2 1191.0,517.5 1194.0,521.0 1197.0,525.4 1200.0,529.6" fill="none" stroke="#8d877a" stroke-width="1" stroke-opacity="0.16" stroke-linejoin="round"/>
<polyline points="0.0,581.9 3.0,578.8 6.0,576.3 9.0,574.9 12.0,574.6 15.0,575.4 18.0,576.9 21.1,578.7 24.1,580.2 27.1,581.2 30.1,581.3 33.1,580.4 36.1,578.6 39.1,576.4 42.1,574.2 45.1,572.7 48.1,572.3 51.1,573.2 54.1,575.1 57.1,577.6 60.2,579.9 63.2,581.6 66.2,582.4 69.2,582.3 72.2,581.7 75.2,581.3 78.2,581.4 81.2,582.2 84.2,583.4 87.2,584.4 90.2,584.7 93.2,583.9 96.2,581.9 99.2,579.3 102.3,576.8 105.3,575.4 108.3,575.7 111.3,578.0 114.3,581.7 117.3,586.0 120.3,589.7 123.3,591.6 126.3,591.0 129.3,587.8 132.3,582.6 135.3,576.9 138.3,572.1 141.4,569.5 144.4,570.0 147.4,573.2 150.4,578.1 153.4,583.1 156.4,586.3 159.4,586.7 162.4,584.1 165.4,579.5 168.4,574.2 171.4,570.2 174.4,568.7 177.4,570.1 180.5,573.7 183.5,578.1 186.5,581.8 189.5,583.7 192.5,583.3 195.5,581.5 198.5,579.3 201.5,577.9 204.5,578.2 207.5,580.1 210.5,582.8 213.5,585.3 216.5,586.5 219.5,586.1 222.6,584.2 225.6,581.7 228.6,579.6 231.6,578.7 234.6,579.1 237.6,580.8 240.6,582.8 243.6,584.5 246.6,585.0 249.6,584.3 252.6,582.2 255.6,579.3 258.6,576.2 261.7,573.5 264.7,571.7 267.7,571.1 270.7,572.1 273.7,574.4 276.7,577.9 279.7,581.9 282.7,585.5 285.7,588.0 288.7,588.7 291.7,587.5 294.7,584.5 297.7,580.7 300.8,577.0 303.8,574.4 306.8,573.3 309.8,573.7 312.8,575.3 315.8,577.4 318.8,579.5 321.8,581.1 324.8,582.3 327.8,583.2 330.8,583.8 333.8,584.0 336.8,583.6 339.8,582.4 342.9,580.3 345.9,577.7 348.9,575.2 351.9,573.8 354.9,574.2 357.9,576.6 360.9,580.6 363.9,585.1 366.9,588.7 369.9,590.1 372.9,588.8 375.9,585.0 378.9,579.9 382.0,575.0 385.0,571.9 388.0,571.5 391.0,573.7 394.0,577.6 397.0,581.7 400.0,584.6 403.0,585.1 406.0,583.1 409.0,579.4 412.0,575.1 415.0,572.0 418.0,571.0 421.1,572.6 424.1,576.2 427.1,580.7 430.1,584.8 433.1,587.3 436.1,587.7 439.1,586.1 442.1,583.3 445.1,580.4 448.1,578.3 451.1,577.6 454.1,578.2 457.1,579.5 460.2,580.9 463.2,581.8 466.2,582.0 469.2,581.8 472.2,581.6 475.2,581.7 478.2,582.4 481.2,583.3 484.2,583.8 487.2,583.4 490.2,581.8 493.2,579.0 496.2,575.8 499.2,573.1 502.3,571.8 505.3,572.3 508.3,574.5 511.3,577.5 514.3,580.5 517.3,582.4 520.3,582.9 523.3,582.0 526.3,580.4 529.3,578.9 532.3,578.2 535.3,578.6 538.3,579.7 541.4,581.1 544.4,581.9 547.4,581.9 550.4,580.9 553.4,579.6 556.4,578.5 559.4,578.3 562.4,579.3 565.4,581.5 568.4,584.1 571.4,586.4 574.4,587.4 577.4,586.9 580.5,584.7 583.5,581.4 586.5,577.9 589.5,575.0 592.5,573.4 595.5,573.5 598.5,575.1 601.5,577.5 604.5,579.9 607.5,581.4 610.5,581.5 613.5,580.2 616.5,577.8 619.5,575.3 622.6,573.7 625.6,573.7 628.6,575.6 631.6,579.0 634.6,582.9 637.6,586.1 640.6,587.5 643.6,586.9 646.6,584.4 649.6,581.3 652.6,578.8 655.6,578.3 658.6,580.0 661.7,583.5 664.7,587.2 667.7,589.6 670.7,589.2 673.7,585.7 676.7,579.8 679.7,573.2 682.7,568.1 685.7,566.1 688.7,567.8 691.7,572.5 694.7,578.5 697.7,583.7 700.8,586.4 703.8,586.1 706.8,583.3 709.8,579.6 712.8,576.6 715.8,575.6 718.8,576.9 721.8,579.7 724.8,582.6 727.8,584.2 730.8,583.8 733.8,581.8 736.8,579.1 739.8,577.3 742.9,577.2 745.9,579.0 748.9,582.0 751.9,584.7 754.9,585.9 757.9,584.7 760.9,581.4 763.9,577.3 766.9,573.8 769.9,572.2 772.9,573.1 775.9,576.0 778.9,579.5 782.0,582.3 785.0,583.4 788.0,582.7 791.0,580.8 794.0,579.0 797.0,578.5 800.0,579.7 803.0,582.3 806.0,585.3 809.0,587.3 812.0,587.3 815.0,585.1 818.0,581.3 821.1,577.1 824.1,573.8 827.1,572.4 830.1,573.0 833.1,575.2 836.1,578.2 839.1,581.1 842.1,583.3 845.1,584.6 848.1,585.1 851.1,585.3 854.1,585.1 857.1,584.6 860.2,583.6 863.2,581.8 866.2,579.4 869.2,576.5 872.2,573.8 875.2,571.9 878.2,571.3 881.2,572.1 884.2,573.9 887.2,576.3 890.2,578.6 893.2,580.4 896.2,581.6 899.2,582.1 902.3,582.2 905.3,582.0 908.3,581.7 911.3,581.3 914.3,581.0 917.3,580.7 920.3,580.8 923.3,581.3 926.3,582.1 929.3,583.0 932.3,583.8 935.3,583.9 938.3,583.1 941.4,581.6 944.4,579.8 947.4,578.2 950.4,577.5 953.4,578.0 956.4,579.5 959.4,581.4 962.4,582.8 965.4,583.2 968.4,582.3 971.4,580.5 974.4,578.5 977.4,577.0 980.5,576.7 983.5,577.5 986.5,579.1 989.5,580.6 992.5,581.4 995.5,581.1 998.5,579.7 1001.5,577.8 1004.5,576.1 1007.5,575.3 1010.5,575.5 1013.5,576.6 1016.5,578.0 1019.5,579.3 1022.6,580.1 1025.6,580.6 1028.6,581.1 1031.6,581.9 1034.6,583.3 1037.6,585.0 1040.6,586.5 1043.6,587.1 1046.6,586.2 1049.6,583.6 1052.6,579.7 1055.6,575.4 1058.6,571.8 1061.7,570.0 1064.7,570.4 1067.7,573.0 1070.7,576.9 1073.7,581.1 1076.7,584.2 1079.7,585.7 1082.7,585.5 1085.7,584.1 1088.7,582.5 1091.7,581.7 1094.7,582.4 1097.7,584.6 1100.8,587.5 1103.8,590.0 1106.8,590.7 1109.8,588.9 1112.8,584.4 1115.8,578.0 1118.8,571.2 1121.8,565.4 1124.8,562.2 1127.8,562.2 1130.8,565.2 1133.8,570.2 1136.8,575.8 1139.8,580.8 1142.9,584.1 1145.9,585.7 1148.9,585.6 1151.9,584.7 1154.9,583.5 1157.9,582.4 1160.9,581.6 1163.9,580.9 1166.9,580.3 1169.9,579.7 1172.9,579.3 1175.9,579.5 1178.9,580.5 1182.0,582.3 1185.0,584.6 1188.0,586.8 1191.0,588.3 1194.0,588.6 1197.0,587.4 1200.0,585.0" fill="none" stroke="#8d877a" stroke-width="1" stroke-opacity="0.16" stroke-linejoin="round"/>
</svg>
